<svg xmlns="http://www.w3.org/2000/svg" width="18" height="20" viewBox="0 0 18 20"><g><g/><g><g/><g><path fill-opacity=".78" d="M17.124 4.47a.993.993 0 0 1-.94 1.305h-.255l-1.016 12.562A1.817 1.817 0 0 1 13.112 20H5.109c-.934 0-1.725-.73-1.8-1.662L2.291 5.775h-.461A.993.993 0 0 1 .89 4.47l.441-1.323a1.232 1.232 0 0 1 1.17-.843h3.711V1.095C6.213.491 6.704 0 7.308 0h3.399c.604 0 1.095.491 1.095 1.095v1.209h3.711c.531 0 1.002.339 1.17.843zM7.385 2.304h3.245V1.172H7.385zm7.368 3.47H3.468l1.008 12.469a.639.639 0 0 0 .633.585h8.003a.64.64 0 0 0 .633-.585zm1.18-1.171l-.362-1.086a.061.061 0 0 0-.058-.041H2.502a.06.06 0 0 0-.058.041l-.362 1.086z"/></g><g><path fill-opacity=".78" d="M11.875 18.204h.031c.31 0 .569-.242.585-.555l.55-10.562a.586.586 0 0 0-1.17-.061l-.55 10.562a.586.586 0 0 0 .554.616z"/></g><g><path fill-opacity=".78" d="M5.547 17.65a.586.586 0 0 0 1.17-.063L6.141 7.024a.586.586 0 1 0-1.17.064z"/></g><g><path fill-opacity=".78" d="M9.006 18.204a.586.586 0 0 0 .586-.586V7.056a.586.586 0 1 0-1.172 0v10.562c0 .324.262.586.586.586z"/></g></g></g></svg>