<svg width="13" height="13" viewBox="0 0 13 13" fill="none" xmlns="http://www.w3.org/2000/svg">
<path fill-rule="evenodd" clip-rule="evenodd" d="M6.5 13C10.0899 13 13 10.0899 13 6.5C13 2.91015 10.0899 0 6.5 0C2.91015 0 0 2.91015 0 6.5C0 10.0899 2.91015 13 6.5 13Z" fill="#FF2222"/>
<path fill-rule="evenodd" clip-rule="evenodd" d="M5.52882 8.83912C5.52882 9.3432 5.95842 9.75001 6.50008 9.75001C7.04175 9.75001 7.47135 9.3432 7.47135 8.83912C7.47135 8.33504 7.04175 7.92824 6.50008 7.92824C5.95842 7.92824 5.52882 8.33504 5.52882 8.83912ZM5.85568 7.40646L5.41675 3.25H7.58341L7.14448 7.40646H5.85568Z" fill="white"/>
</svg>
