<svg width="28" height="28" viewBox="0 0 28 28" fill="none" xmlns="http://www.w3.org/2000/svg">
<g filter="url(#filter0_dd)">
<path fill-rule="evenodd" clip-rule="evenodd" d="M14.0098 1.25121C13.4754 1.25121 12.9475 1.35222 12.4262 1.55424C11.9048 1.75626 11.4356 2.01367 11.0186 2.32648C10.6015 2.63929 10.2659 2.97816 10.0117 3.3431C9.75757 3.70804 9.63049 4.05343 9.63049 4.37927V7.50732C9.63049 8.1199 9.78363 8.90191 10.0899 9.85336C10.3962 10.8048 10.8752 11.5412 11.5269 12.0626C11.6963 12.1929 11.8234 12.3591 11.9081 12.5611C11.9928 12.7631 12.0221 12.9749 11.9961 13.1965C11.957 13.405 11.8755 13.5973 11.7517 13.7732C11.6279 13.9492 11.4682 14.0828 11.2727 14.174L5.77907 16.7742C5.70087 16.8003 5.59334 16.8622 5.45649 16.9599C5.31964 17.0577 5.25121 17.2369 5.25121 17.4975V18.7683L22.7488 18.7488V17.5366C22.7488 17.1978 22.6673 16.986 22.5044 16.9013C22.3415 16.8165 22.2535 16.7742 22.2405 16.7742L16.7859 14.1935C16.5904 14.1023 16.4275 13.9687 16.2972 13.7928C16.1668 13.6168 16.0886 13.418 16.0626 13.1965C16.0365 12.9749 16.0658 12.7631 16.1505 12.5611C16.2352 12.3591 16.3623 12.1929 16.5318 12.0626C17.2095 11.5412 17.6885 10.8016 17.9687 9.84359C18.2489 8.88562 18.389 8.10687 18.389 7.50732V4.37927C18.389 4.04039 18.2587 3.68849 17.998 3.32355C17.7374 2.95861 17.4018 2.623 16.9912 2.31671C16.5806 2.01042 16.1114 1.75626 15.5836 1.55424C15.0557 1.35222 14.5311 1.25121 14.0098 1.25121ZM14.0098 0C14.7006 0 15.3816 0.130334 16.0528 0.391007C16.724 0.651679 17.3236 0.990549 17.8514 1.40762C18.3793 1.8247 18.8094 2.2939 19.1417 2.81525C19.4741 3.33659 19.6403 3.85793 19.6403 4.37928V7.50733C19.6403 7.88531 19.6012 8.32193 19.523 8.8172C19.4448 9.31248 19.3144 9.81753 19.132 10.3324C18.9495 10.8472 18.7084 11.3425 18.4086 11.8182C18.1088 12.2939 17.7439 12.7012 17.3138 13.0401L22.7683 15.6403C22.7683 15.6403 22.9736 15.7543 23.3842 15.9824C23.7947 16.2105 24 16.507 24 16.8719V18.7683C24 19.1072 23.8794 19.3972 23.6383 19.6383C23.3972 19.8794 23.1072 20 22.7683 20H5.25122C4.89931 20 4.6028 19.8794 4.36168 19.6383C4.12056 19.3972 4 19.1072 4 18.7683V16.8719C4 16.5331 4.20853 16.2431 4.62561 16.002C5.04269 15.7608 5.25122 15.6403 5.25122 15.6403L10.7449 13.0401C10.3017 12.6882 9.93027 12.2646 9.6305 11.7693C9.33073 11.274 9.08635 10.769 8.89736 10.2542C8.70837 9.73933 8.57478 9.23754 8.49658 8.74878C8.41838 8.26002 8.37928 7.84621 8.37928 7.50733V4.37928C8.37928 3.85793 8.54219 3.33659 8.86804 2.81525C9.19388 2.2939 9.62072 1.8247 10.1486 1.40762C10.6764 0.990549 11.2792 0.651679 11.957 0.391007C12.6347 0.130334 13.319 0 14.0098 0Z" fill="white"/>
</g>
<defs>
<filter id="filter0_dd" x="0" y="0" width="28" height="28" filterUnits="userSpaceOnUse" color-interpolation-filters="sRGB">
<feFlood flood-opacity="0" result="BackgroundImageFix"/>
<feColorMatrix in="SourceAlpha" type="matrix" values="0 0 0 0 0 0 0 0 0 0 0 0 0 0 0 0 0 0 127 0"/>
<feOffset dy="4"/>
<feGaussianBlur stdDeviation="2"/>
<feColorMatrix type="matrix" values="0 0 0 0 0 0 0 0 0 0 0 0 0 0 0 0 0 0 0.25 0"/>
<feBlend mode="normal" in2="BackgroundImageFix" result="effect1_dropShadow"/>
<feColorMatrix in="SourceAlpha" type="matrix" values="0 0 0 0 0 0 0 0 0 0 0 0 0 0 0 0 0 0 127 0"/>
<feOffset dy="4"/>
<feGaussianBlur stdDeviation="2"/>
<feColorMatrix type="matrix" values="0 0 0 0 0 0 0 0 0 0 0 0 0 0 0 0 0 0 0.25 0"/>
<feBlend mode="normal" in2="effect1_dropShadow" result="effect2_dropShadow"/>
<feBlend mode="normal" in="SourceGraphic" in2="effect2_dropShadow" result="shape"/>
</filter>
</defs>
</svg>
