<svg width="14" height="10" viewBox="0 0 14 10" fill="none" xmlns="http://www.w3.org/2000/svg">
<path fill-rule="evenodd" clip-rule="evenodd" d="M11.8777 0.790463C12.0272 0.633767 12.1991 0.55542 12.3935 0.55542C12.5879 0.55542 12.7598 0.633767 12.9093 0.790463C13.0439 0.931489 13.1111 1.10777 13.1111 1.31931C13.1111 1.53085 13.0439 1.70713 12.9093 1.84815L5.75538 9.39302C5.74043 9.40869 5.72548 9.42436 5.71053 9.44003C5.69558 9.4557 5.68062 9.47137 5.66567 9.48704C5.53112 9.64374 5.36292 9.72208 5.16109 9.72208C4.95925 9.72208 4.79106 9.64374 4.6565 9.48704L1.09075 5.77337C0.956194 5.63234 0.888916 5.45606 0.888916 5.24452C0.888916 5.03298 0.956194 4.8567 1.09075 4.71567C1.24026 4.55898 1.41219 4.48063 1.60655 4.48063C1.80091 4.48063 1.97284 4.55898 2.12235 4.71567L5.14987 7.88875L11.8777 0.790463Z" fill="white"/>
</svg>
