<svg xmlns="http://www.w3.org/2000/svg" width="56" height="31" viewBox="0 0 56 31"><g><g><g/><g><g><g><path fill="#eb694c" d="M4.57 29.104h8.747a.616.616 0 0 0 .173-.432v-4.779L8.945 21.59 4.4 23.893v4.779c0 .172.065.324.17.432z"/></g></g><g><g><path fill="#eb694c" d="M42.68 29.098h8.747a.616.616 0 0 0 .173-.432v-4.78l-4.792-2.016-4.298 2.017v4.779c0 .172.065.324.17.432z"/></g></g><g><g><path fill="#f9f7f8" d="M31.45 13.024c0 3.674 2.76 6.683 6.133 6.683s6.132-3.009 6.132-6.683V8.41c0-3.529-2.545-6.44-5.732-6.667a5.275 5.275 0 0 0-.4-.013c-3.374 0-6.133 3.006-6.133 6.68v4.614z"/></g></g><g><g><path fill="#eb694c" d="M37.58 19.707h5.5c3.262 0 5.931-2.91 5.931-6.464V8.191c0-3.553-2.67-6.461-5.93-6.461h-3.963l-1.138.013c4.539.683 4.53 18.066-.4 17.965z"/></g></g><g><g><path fill="#ea4a31" d="M40.46 1.73c3.262 0 5.934 2.908 5.934 6.46v5.053c0 3.533-2.638 6.427-5.875 6.464h2.558c3.261 0 5.93-2.91 5.93-6.464V8.191c0-3.553-2.669-6.461-5.93-6.461z"/></g></g><g><g><path fill="#fbc7b8" d="M37.579 5.98c-1.355 0-2.524 1.108-3.079 2.719 3.482 1.185 3.184 3.637 6.396 3.32.068-.385.106-.787.106-1.2 0-2.674-1.532-4.839-3.423-4.839z"/></g></g><g><g><path fill="#fbb49e" d="M36.56 6.2c1.308.678 2.238 2.455 2.238 4.542 0 .108-.003.216-.006.324.521.44 1.144.807 2.109.953.068-.385.105-.787.105-1.2 0-2.674-1.532-4.839-3.423-4.839-.356 0-.7.074-1.023.22z"/></g></g><g><g><path fill="#e5e4ed" d="M35.57 2.098c1.95.74 3.46 2.526 3.953 4.735.893.875 1.476 2.33 1.476 3.982 0 .412-.037.814-.106 1.199-.214 1.179-.731 2.185-1.432 2.84-.394 1.5-1.262 2.79-2.412 3.661h4.012c1.596-1.209 2.647-3.222 2.647-5.491V8.41c0-3.529-2.545-6.44-5.732-6.667a5.622 5.622 0 0 0-2.406.355z"/></g></g><g><g><path fill="#eb694c" d="M34.15 10.82c0 2.672 1.535 4.84 3.426 4.84 1.597 0 2.94-1.546 3.317-3.64-3.02-.46-2.685-3.073-6.396-3.32a6.44 6.44 0 0 0-.347 2.12z"/></g></g><g><g><path fill="#ee6161" d="M38.784 11.06c-.097 2.026-1.073 3.712-2.394 4.296.369.192.769.297 1.184.297 1.597 0 2.94-1.547 3.318-3.64a4.015 4.015 0 0 1-2.108-.953z"/></g></g><g><g><path fill="#f9f7f8" d="M19.41 13.024c0 3.674 2.76 6.683 6.133 6.683s6.132-3.009 6.132-6.683V8.41c0-3.529-2.542-6.44-5.732-6.667a5.168 5.168 0 0 0-.4-.013c-3.374 0-6.133 3.006-6.133 6.68v4.614z"/></g></g><g><g><path fill="#eb694c" d="M25.55 19.707h5.5c3.265 0 5.934-2.91 5.934-6.464V8.191c0-3.553-2.67-6.461-5.934-6.461h-3.962l-1.138.013c4.539.683 4.533 18.066-.4 17.965z"/></g></g><g><g><path fill="#ea4a31" d="M28.43 1.73c3.265 0 5.934 2.908 5.934 6.46v5.053c0 3.533-2.638 6.427-5.872 6.464H31.047c3.265 0 5.934-2.91 5.934-6.464V8.191c0-3.553-2.67-6.461-5.934-6.461z"/></g></g><g><g><path fill="#fbc7b8" d="M25.549 5.98c-1.352 0-2.521 1.108-3.079 2.719 3.482 1.185 3.187 3.637 6.396 3.32.071-.385.109-.787.109-1.2 0-2.674-1.535-4.839-3.426-4.839z"/></g></g><g><g><path fill="#fbb49e" d="M24.52 6.2c1.308.678 2.242 2.455 2.242 4.542 0 .108-.003.216-.01.324.521.44 1.144.807 2.109.953.071-.385.108-.787.108-1.2 0-2.674-1.535-4.839-3.426-4.839-.356 0-.7.074-1.023.22z"/></g></g><g><g><path fill="#e5e4ed" d="M23.54 2.098c1.95.74 3.46 2.526 3.956 4.735.89.875 1.476 2.33 1.476 3.982 0 .412-.037.814-.109 1.199-.21 1.179-.731 2.185-1.429 2.84-.394 1.5-1.262 2.79-2.412 3.661h4.009c1.6-1.209 2.647-3.222 2.647-5.491V8.41c0-3.529-2.542-6.44-5.732-6.667a5.622 5.622 0 0 0-2.406.355z"/></g></g><g><g><path fill="#eb694c" d="M22.12 10.82c0 2.672 1.532 4.84 3.423 4.84 1.6 0 2.942-1.546 3.317-3.64-3.02-.46-2.685-3.073-6.396-3.32a6.52 6.52 0 0 0-.344 2.12z"/></g></g><g><g><path fill="#ee6161" d="M26.754 11.06c-.093 2.026-1.073 3.712-2.394 4.296.369.192.769.297 1.184.297 1.6 0 2.943-1.547 3.318-3.64a4.015 4.015 0 0 1-2.108-.953z"/></g></g><g><g><path fill="#f9f7f8" d="M7.38 13.024c0 3.674 2.763 6.683 6.136 6.683s6.132-3.009 6.132-6.683V8.41c0-3.529-2.545-6.44-5.732-6.667a5.275 5.275 0 0 0-.4-.013c-3.374 0-6.136 3.006-6.136 6.68v4.614z"/></g></g><g><g><path fill="#eb694c" d="M13.52 19.707h5.5c3.262 0 5.931-2.91 5.931-6.464V8.191c0-3.553-2.67-6.461-5.93-6.461h-3.963l-1.138.013c4.539.683 4.53 18.066-.4 17.965z"/></g></g><g><g><path fill="#ea4a31" d="M16.4 1.73c3.262 0 5.931 2.908 5.931 6.46v5.053c0 3.533-2.635 6.427-5.872 6.464h2.558c3.262 0 5.931-2.91 5.931-6.464V8.191c0-3.553-2.67-6.461-5.931-6.461z"/></g></g><g><g><path fill="#e6e9ed" d="M13.485 23.893h41.146c.3 0 .548-.267.548-.594v-4.185c0-.327-.248-.594-.548-.594H1.365c-.3 0-.545.267-.545.594V23.3c0 .327.245.594.546.594h3.029z"/></g></g><g><g><path fill="#ea4a31" d="M51.6 23.89h-9.09v2.161h5.246c.8 0 .772.406.772 1.206v1.844h2.899a.616.616 0 0 0 .173-.432V23.89z"/></g></g><g><g><path fill="#ea4a31" d="M13.49 23.89H4.4v2.161h5.246c.8 0 .772.406.772 1.206v1.844h2.899a.616.616 0 0 0 .173-.432V23.89z"/></g></g><g><g><path fill="#fbc7b8" d="M13.519 5.98c-1.355 0-2.524 1.108-3.079 2.719 3.479 1.185 3.184 3.637 6.396 3.32.068-.385.106-.787.106-1.2 0-2.674-1.532-4.839-3.423-4.839z"/></g></g><g><g><path fill="#fbb49e" d="M12.49 6.2c1.305.678 2.238 2.455 2.238 4.542 0 .108-.003.216-.006.324.521.44 1.144.807 2.109.953.068-.385.105-.787.105-1.2 0-2.674-1.532-4.839-3.423-4.839-.356 0-.7.074-1.023.22z"/></g></g><g><g><path fill="#e5e4ed" d="M11.51 2.098c1.95.74 3.457 2.526 3.953 4.735.893.875 1.476 2.33 1.476 3.982 0 .412-.037.814-.106 1.199-.214 1.179-.731 2.185-1.432 2.84-.394 1.5-1.262 2.79-2.412 3.661H17c1.596-1.209 2.647-3.222 2.647-5.491V8.41c0-3.529-2.545-6.44-5.732-6.667a5.61 5.61 0 0 0-2.406.355z"/></g></g><g><g><path fill="#eb694c" d="M10.09 10.82c0 2.672 1.535 4.84 3.426 4.84 1.597 0 2.94-1.546 3.317-3.64-3.02-.46-2.688-3.073-6.396-3.32a6.44 6.44 0 0 0-.347 2.12z"/></g></g><g><g><path fill="#ee6161" d="M14.724 11.06c-.097 2.026-1.073 3.712-2.394 4.296.369.192.766.297 1.184.297 1.597 0 2.94-1.547 3.318-3.64a4.015 4.015 0 0 1-2.108-.953z"/></g></g><g><g><path d="M54.63 17.626c.756 0 1.37.667 1.37 1.487v4.185c0 .82-.614 1.488-1.37 1.488h-2.205v3.885c0 .823-.614 1.492-1.369 1.492H43.06c-.753 0-1.366-.67-1.366-1.492v-3.885H31.05c-.453 0-.82-.4-.82-.894 0-.493.367-.893.82-.893h23.31v-3.586H1.641v3.586h25.623c.453 0 .82.4.82.893 0 .494-.367.894-.82.894H14.306v3.886c0 .822-.614 1.49-1.37 1.49H4.942c-.753 0-1.366-.668-1.366-1.49v-3.886H1.366C.613 24.786 0 24.12 0 23.298v-4.184c0-.82.613-1.488 1.366-1.488h6.63a8 8 0 0 1-1.435-4.598v-.615c0-.493.367-.894.82-.894.453 0 .82.4.82.894v.615c0 1.804.779 3.499 2.096 4.598h6.435c1.318-1.1 2.096-2.794 2.096-4.598V8.414c0-3.19-2.383-5.786-5.312-5.786-2.93 0-5.315 2.596-5.315 5.786 0 .494-.368.894-.82.894-.454 0-.82-.4-.82-.894C6.56 4.238 9.68.84 13.515.84h5.5c1.175 0 2.28.33 3.242.906A6.463 6.463 0 0 1 25.545.84h5.5c1.176 0 2.282.33 3.246.907A6.464 6.464 0 0 1 37.579.84h5.5c3.723 0 6.751 3.3 6.751 7.355v5.052a7.79 7.79 0 0 1-1.336 4.379zM5.216 28.376h7.45v-3.59h-7.45zm18.913-15.129V8.195c0-.607-.091-1.19-.256-1.737l-.003-.007-.004-.015c-.678-2.21-2.594-3.809-4.848-3.809h-1.021c1.51 1.391 2.473 3.469 2.473 5.787v4.614a8 8 0 0 1-1.435 4.598h3.127c1.235-1.06 1.966-2.676 1.966-4.379zm6.73-.219V8.414c0-1.539-.555-2.99-1.561-4.086-1.007-1.097-2.34-1.7-3.751-1.7a4.88 4.88 0 0 0-1.786.34 7.425 7.425 0 0 1 1.384 2.143c.133-.017.267-.026.402-.026 2.341 0 4.247 2.572 4.247 5.734 0 3.161-1.906 5.733-4.247 5.733-.164 0-.327-.013-.489-.037-.178.389-.389.76-.628 1.11h4.336c1.316-1.097 2.093-2.792 2.093-4.597zm-5.09-4.833v.786c.335.266.62.548.88.804.477.473.884.874 1.502 1.126l.002-.092c0-2.12-1.11-3.854-2.495-3.943.072.429.111.869.111 1.319zm0 5.052a7.89 7.89 0 0 1-.147 1.515c.941-.043 1.776-.884 2.212-2.081-.93-.318-1.54-.842-2.065-1.353zM36.16 8.195c0-3.07-2.294-5.568-5.114-5.568H30.02c.15.139.297.284.438.437 1.316 1.434 2.041 3.334 2.041 5.35v4.614a8.006 8.006 0 0 1-1.432 4.598h3.128c1.235-1.06 1.966-2.676 1.966-4.379zm6.731.219c0-1.539-.554-2.99-1.56-4.086-1.008-1.097-2.34-1.7-3.752-1.7a4.88 4.88 0 0 0-1.787.34 7.427 7.427 0 0 1 1.383 2.143c.134-.017.269-.026.404-.026 2.34 0 4.243 2.572 4.243 5.734 0 .458-.04.918-.12 1.368l-.007.033v.005c-.474 2.551-2.162 4.327-4.116 4.327-.164 0-.327-.013-.49-.038-.177.39-.388.761-.627 1.112h4.332c1.319-1.1 2.097-2.794 2.097-4.598zM37.69 6.877c.071.427.11.868.11 1.318v.786c.336.266.62.547.88.804.477.472.883.872 1.5 1.124l.001-.09c0-2.12-1.108-3.854-2.491-3.943zm.11 6.37c0 .514-.05 1.022-.146 1.516.938-.041 1.78-.854 2.216-2.081-.933-.317-1.543-.843-2.07-1.355zm4.69-10.183c1.317 1.434 2.042 3.334 2.042 5.35v4.614a7.997 7.997 0 0 1-1.435 4.598h3.127c1.235-1.058 1.966-2.674 1.966-4.379V8.195c0-3.07-2.293-5.568-5.111-5.568h-1.027c.15.139.298.284.438.437zm8.295 21.722h-7.45v3.59h7.45z"/></g><g><path d="M13.516 16.547c-2.341 0-4.246-2.572-4.246-5.734 0-3.161 1.905-5.733 4.246-5.733 2.34 0 4.243 2.572 4.243 5.733 0 3.162-1.903 5.734-4.243 5.734zM11.704 7.98c1.45.354 2.219 1.112 2.912 1.798.477.473.884.873 1.501 1.125l.002-.09c0-2.177-1.168-3.947-2.603-3.947-.703 0-1.342.425-1.812 1.114zm-.793 2.832c0 2.14 1.193 3.946 2.605 3.946.99 0 1.854-.844 2.293-2.082-1.068-.362-1.714-.999-2.296-1.575-.659-.651-1.24-1.225-2.489-1.442a5.83 5.83 0 0 0-.113 1.153z"/></g></g></g></g></g></svg>