<svg xmlns="http://www.w3.org/2000/svg" width="48" height="52" viewBox="0 0 48 52"><g><g><g/><g><g><path fill="#f9f6f6" d="M38.678 15.325a40.56 40.56 0 0 0-.672 1.51 10.246 10.246 0 0 1-2.21 3.244c-3.104 3.104-7.465 3.774-9.742 1.498-2.276-2.276-1.606-6.638 1.498-9.742.445-.445.915-.839 1.4-1.182a31.718 31.718 0 0 0-7.12-.793c-11.44 0-20.712 5.85-20.712 13.067 0 7.217 9.273 13.067 20.711 13.067 11.439 0 20.711-5.85 20.711-13.067 0-2.836-1.432-5.46-3.864-7.602z"/></g><g><path fill="#efe7e4" d="M37.308 18.194c-.412.66-.915 1.298-1.507 1.89-3.104 3.103-7.466 3.774-9.742 1.498-1.929-1.929-1.742-5.353.247-8.242a27.27 27.27 0 0 0-4.47-.39c-6.864 0-17.626 3.31-17.626 9.982 0 6.413 10.238 9.981 17.626 9.981 6.864 0 17.626-3.31 17.626-9.981 0-1.815-.817-3.399-2.154-4.738z"/></g><g><path fill="#eb694c" d="M35.165 20.664c-3.04 2.597-6.986 3.042-9.112.915-1.176-1.176-1.566-2.908-1.24-4.736a24.252 24.252 0 0 0-2.983-.193c-6.328 0-16.25 3.052-16.25 9.203 0 .363.036.716.104 1.06 3.102 3.89 10.466 5.998 16.146 5.998 5.31 0 12.954-1.981 16.142-5.968.07-.352.108-.715.108-1.09 0-2.06-1.142-3.798-2.915-5.189z"/></g><g><path fill="#ea4a31" d="M35.166 20.66c-.497.424-1.018.791-1.551 1.099.262.645.404 1.332.404 2.058v.012a2.557 2.557 0 0 1-.743 1.79c-3.481 3.511-10.522 5.257-15.507 5.257-3.022 0-6.52-.597-9.599-1.74 3.658 2.46 9.183 3.771 13.66 3.771 5.311 0 12.955-1.981 16.143-5.968.07-.352.108-.716.108-1.09 0-2.06-1.142-3.798-2.915-5.189z"/></g><g><path fill="#fff" d="M46.253 1.39a2.119 2.119 0 0 0-2.86-.125l-3.337 2.798c-2.775 2.328-5.915 4.163-9.254 5.568a10.247 10.247 0 0 0-3.244 2.21c-3.104 3.104-3.774 7.466-1.498 9.742 2.276 2.277 6.638 1.606 9.742-1.498.99-.99 1.732-2.107 2.21-3.244 1.405-3.338 3.24-6.478 5.568-9.254l2.798-3.337a2.119 2.119 0 0 0-.125-2.86z"/></g><g><path fill="#e3e3e3" d="M46.252 1.39a2.12 2.12 0 0 0-2.43-.405c-.026.44-.189.874-.49 1.234l-2.799 3.337c-2.327 2.776-4.163 5.916-5.568 9.254a10.247 10.247 0 0 1-2.21 3.244c-2.203 2.203-5.04 3.18-7.315 2.748.174.28.38.543.62.781 2.276 2.277 6.638 1.606 9.742-1.498.99-.99 1.732-2.107 2.21-3.244 1.404-3.338 3.24-6.478 5.568-9.254l2.798-3.337a2.119 2.119 0 0 0-.126-2.86z"/></g><g><path fill="#e6e9ed" d="M21.834 35.994c-10.104 0-18.518-4.565-20.344-10.604l4.308 16.84c.928 5.07 7.753 9.005 16.036 9.005 8.282 0 15.108-3.936 16.035-9.004l4.309-16.841c-1.826 6.04-10.24 10.604-20.344 10.604z"/></g><g><path fill="#eadfda" d="M35.748 32.605L33.805 40.2c-.927 5.068-7.753 9.004-16.035 9.004-2.854 0-5.534-.467-7.86-1.287 2.952 2.039 7.2 3.318 11.922 3.318 8.282 0 15.108-3.936 16.035-9.004l4.308-16.841c-.857 2.837-3.169 5.349-6.427 7.215z"/></g><g><path fill="#fbf1e2" d="M16.397 27.627h-4.37a.748.748 0 0 1-.747-.747v-3.772c0-.413.335-.748.748-.748h4.37c.412 0 .747.335.747.748v3.772a.748.748 0 0 1-.748.747z"/></g><g><path fill="#eb694c" d="M27.89 19.745c-1.334-1.334-.273-4.294 1.5-6.066 2.098-2.099 4.913-2.65 6.065-1.498 1.335 1.334.275 4.293-1.498 6.066-2.098 2.098-4.914 2.65-6.066 1.498z"/></g><g><path fill="#ea4a31" d="M32.752 18.052c-1.035 1.036-2.21 1.8-3.402 2.275 1.352.087 3.154-.625 4.61-2.082 1.534-1.533 2.535-3.956 1.912-5.445-.322.66-.625 1.33-.91 2.008a10.244 10.244 0 0 1-2.21 3.244z"/></g><g><path fill="#fbf1e2" d="M30.225 22.9c-1.277.124-2.481-.114-3.45-.74l-2.527 2.527a.708.708 0 0 0 0 1.002l2.527 2.528a.708.708 0 0 0 1.002 0l3.382-3.381a.708.708 0 0 0 0-1.002z"/></g><g><path d="M16.4 21.6c.831 0 1.508.677 1.508 1.51v3.771c0 .833-.677 1.51-1.509 1.51h-4.37c-.832 0-1.509-.677-1.509-1.51V23.11c0-.832.677-1.509 1.51-1.509zm-.015 1.523h-4.342v3.744h4.342z"/></g><g><path d="M21.277 20.953a.762.762 0 0 0 0-1.523h-1.655a.762.762 0 0 0 0 1.523z"/></g><g><path d="M33.42 28.14l1.17-1.17a.762.762 0 1 0-1.076-1.077l-1.17 1.17a.762.762 0 1 0 1.076 1.078z"/></g><g><path d="M22.828 28.564l-1.599-.428a.762.762 0 0 0-.394 1.471l1.599.429a.762.762 0 0 0 .394-1.472z"/></g><g><path d="M8.472 25.893a.762.762 0 1 0 0-1.523.762.762 0 0 0 0 1.523z"/></g><g><path d="M20.192 24.673a.762.762 0 1 0 0-1.523.762.762 0 0 0 0 1.523z"/></g><g><path d="M29.902 18.543a.762.762 0 1 0 0-1.523.762.762 0 0 0 0 1.523z"/></g><g><path d="M32.76 36.334l-1.649 9.665a.762.762 0 0 0 1.502.256l1.648-9.665a.762.762 0 0 0-1.502-.256z"/></g><g><path d="M26.776 38.007l-.863 10.112a.762.762 0 1 0 1.518.129l.863-10.112a.762.762 0 1 0-1.518-.129z"/></g><g><path d="M21.07 38.532v10.163a.762.762 0 0 0 1.523 0V38.532a.762.762 0 0 0-1.523 0z"/></g><g><path d="M16.067 37.313a.762.762 0 0 0-.694.823l.862 10.112a.761.761 0 1 0 1.518-.13l-.863-10.111a.761.761 0 0 0-.823-.694z"/></g><g><path d="M10.034 35.71a.762.762 0 0 0-.623.88l1.648 9.665A.762.762 0 1 0 12.561 46l-1.648-9.665a.762.762 0 0 0-.88-.623z"/></g><g><path d="M28.853 13.135c2.342-2.342 5.613-3.028 7.143-1.498.822.821 1.039 2.105.61 3.615-.941 3.323-4.24 5.844-7.034 5.844-.883 0-1.664-.264-2.217-.817-.822-.822-1.038-2.106-.61-3.615.356-1.26 1.125-2.546 2.108-3.529zm6.288 1.702c.267-.942.186-1.715-.222-2.123-.251-.251-.653-.378-1.142-.378-1.081 0-2.59.618-3.847 1.876-.793.793-1.436 1.865-1.72 2.867-.267.941-.186 1.715.222 2.123.251.25.653.378 1.142.378 1.081 0 2.59-.619 3.847-1.877.793-.793 1.436-1.864 1.72-2.866z"/></g><g><path d="M37.737 5.843a.762.762 0 0 1-.212 1.056 38.696 38.696 0 0 1-6.432 3.431c-2.738 1.152-5.105 3.892-5.553 6.806-.245 1.594.13 2.981 1.054 3.906 1.02 1.02 2.49 1.272 3.907 1.054 2.925-.45 5.659-2.828 6.805-5.553 1.44-3.423 3.328-6.635 5.686-9.448l2.798-3.337a1.35 1.35 0 0 0-.08-1.832 1.35 1.35 0 0 0-1.832-.08l-3.337 2.798a.762.762 0 0 1-.979-1.167L42.9.679a2.865 2.865 0 0 1 3.887.17 2.865 2.865 0 0 1 .17 3.888L44.16 8.074c-1.749 2.085-3.273 4.457-4.549 7.073 2.42 2.292 3.695 4.972 3.695 7.784 0 1.729-.253 1.94-2.212 9.769a.762.762 0 0 1-1.476-.378l.553-2.16c-.91.957-2.01 1.847-3.287 2.653-4.031 2.543-9.377 3.944-15.051 3.944-5.674 0-11.02-1.4-15.051-3.944-1.277-.806-2.376-1.696-3.287-2.653C6.69 42.652 6.54 42.056 6.546 42.097c.41 2.239 2.145 4.326 4.886 5.877 5.9 3.34 14.912 3.334 20.802 0 2.74-1.551 4.476-3.638 4.886-5.877.007-.042-.031.112 1.582-6.193a.762.762 0 0 1 1.476.377l-1.565 6.117c-.5 2.68-2.499 5.13-5.629 6.902-3.076 1.741-7.036 2.7-11.151 2.7s-8.075-.959-11.151-2.7c-3.13-1.772-5.129-4.222-5.63-6.902C.404 24.032.36 24.678.36 22.931c0-3.762 2.28-7.272 6.421-9.884 6.15-3.88 14.803-4.79 22.02-3.206a10.45 10.45 0 0 1 1.702-.915 37.175 37.175 0 0 0 6.178-3.295.762.762 0 0 1 1.056.212zm4.045 17.088c0-2.238-.981-4.404-2.85-6.315a40.87 40.87 0 0 0-.222.518c-.135.32-.289.638-.46.95 1.308 1.47 1.97 3.098 1.97 4.847 0 3.307-2.309 6.136-6.677 8.182-3.374 1.58-7.86 2.56-11.71 2.56-7.709 0-18.388-3.732-18.388-10.742 0-3.308 2.31-6.137 6.678-8.183 3.374-1.58 7.86-2.56 11.71-2.56 1.323 0 2.709.109 4.126.324.39-.516.822-.995 1.277-1.427a31.434 31.434 0 0 0-5.403-.46c-5.39 0-10.447 1.318-14.239 3.71-3.682 2.323-5.71 5.376-5.71 8.596 0 3.692 2.599 6.632 5.71 8.595 3.792 2.392 8.849 3.71 14.239 3.71 5.39 0 10.447-1.318 14.238-3.71 3.11-1.962 5.711-4.919 5.711-8.595zm-5.466-2.29c1.123 1.036 1.885 2.19 2.26 3.417.079-.36.121-.736.121-1.127 0-1.24-.441-2.417-1.314-3.512-.326.431-.684.84-1.067 1.223zm-6.385 3.043c-1.035.053-2.08-.11-3.03-.576l-2.08 2.08 2.453 2.453 3.307-3.307zm-4.414-1.565c-1.15-1.15-1.692-2.768-1.553-4.602a22.76 22.76 0 0 0-2.131-.104c-3.1 0-6.785.756-9.618 1.973a.762.762 0 0 1-.601-1.4c3.056-1.313 6.877-2.096 10.219-2.096.77 0 1.57.04 2.389.121.188-.71.468-1.41.831-2.088a25.468 25.468 0 0 0-3.22-.212c-3.64 0-7.88.926-11.064 2.417-2.646 1.239-5.8 3.425-5.8 6.803 0 .387.042.758.12 1.114.469-1.544 1.544-2.965 3.179-4.178a.762.762 0 0 1 .907 1.223c-1.878 1.394-2.83 2.997-2.83 4.764 0 .25.02.5.06.746 1.121 1.334 2.728 2.337 4.177 3.042 3.231 1.57 7.437 2.509 11.25 2.509 3.641 0 7.88-.927 11.065-2.418 1.517-.71 3.202-1.732 4.363-3.112.04-.251.061-.509.061-.767 0-1.524-.726-2.936-2.16-4.204-1.053.801-2.21 1.39-3.39 1.725a1.472 1.472 0 0 1-.075 1.998l-3.382 3.382a1.472 1.472 0 0 1-2.08 0l-2.527-2.528a1.46 1.46 0 0 1-.431-1.04c0-.392.153-.761.43-1.039l1.922-1.921a4.887 4.887 0 0 1-.11-.108z"/></g><g><path d="M32.998 14.801l-1.512-.25a.761.761 0 1 0-.249 1.502l1.512.25a.762.762 0 0 0 .249-1.502z"/></g></g></g></g></svg>