<svg width="35" height="35" viewBox="0 0 35 35" fill="none" xmlns="http://www.w3.org/2000/svg">
<g clip-path="url(#clip0)">
<path d="M7.75674 21.1507L6.53844 25.6988L2.08558 25.793C0.754824 23.3247 0 20.5007 0 17.4997C0 14.5978 0.705742 11.8613 1.95672 9.45166H1.95768L5.92197 10.1785L7.65857 14.119C7.29511 15.1786 7.097 16.3161 7.097 17.4997C7.09714 18.7844 7.32983 20.0152 7.75674 21.1507Z" fill="#FBBB00"/>
<path d="M34.6943 14.231C34.8952 15.2896 35 16.3828 35 17.5002C35 18.7531 34.8683 19.9752 34.6174 21.1541C33.7655 25.1656 31.5395 28.6685 28.4559 31.1473L28.4549 31.1463L23.4617 30.8916L22.755 26.48C24.8011 25.28 26.4002 23.4021 27.2425 21.1541H17.8848V14.231H27.379H34.6943Z" fill="#518EF8"/>
<path d="M28.4552 31.146L28.4561 31.147C25.4571 33.5576 21.6475 34.9999 17.5004 34.9999C10.8359 34.9999 5.04173 31.2749 2.08594 25.7932L7.7571 21.1509C9.23496 25.0951 13.0398 27.9028 17.5004 27.9028C19.4176 27.9028 21.2138 27.3845 22.7551 26.4797L28.4552 31.146Z" fill="#28B446"/>
<path d="M28.67 4.02883L23.0008 8.67016C21.4056 7.67307 19.52 7.09707 17.4998 7.09707C12.9383 7.09707 9.0623 10.0336 7.65847 14.1192L1.9575 9.45191H1.95654C4.86906 3.83653 10.7363 0 17.4998 0C21.746 0 25.6392 1.51252 28.67 4.02883Z" fill="#F14336"/>
</g>
<defs>
<clipPath id="clip0">
<rect width="35" height="35" fill="white"/>
</clipPath>
</defs>
</svg>
