<svg width="16" height="16" viewBox="0 0 16 16" fill="none" xmlns="http://www.w3.org/2000/svg">
<path d="M10.6924 8.75904C10.321 8.54251 9.67215 8.01297 9.06754 8.57975C8.92486 8.72281 8.83039 8.81861 8.76934 8.88011C8.22012 8.62383 7.24355 7.69496 6.99033 7.10881C7.88758 6.30534 7.47226 6.01876 6.5898 4.36774C6.43902 4.11146 6.19459 3.94141 5.89628 3.94141C5.5309 3.94141 5.3881 4.11875 4.86617 4.63906C4.21265 5.29036 3.82912 5.49493 4.07494 6.59853C4.77448 9.73997 9.44286 12.8862 10.7649 11.4797C11.8448 10.4232 12.053 10.323 11.9898 9.84521C11.9101 9.36944 11.5395 9.2528 10.6924 8.75904ZM10.1142 10.8845C10.0387 10.967 9.58659 10.9943 8.83664 10.6876C7.41456 10.1063 5.93941 8.58066 5.33491 7.44175C5.1424 7.07897 4.71666 6.00327 4.953 5.79346C5.04967 5.70314 5.6996 5.04934 5.86587 4.8909C6.30848 5.71738 6.52401 6.10374 6.59558 6.26115C6.46828 6.45478 6.06116 6.60639 6.06116 7.08136C6.24026 8.00933 7.46578 9.14653 8.19827 9.56968C8.9459 10.0016 9.18513 9.71286 9.45743 9.4379C9.70059 9.19255 9.67978 9.20747 9.7051 9.20496L11.0425 9.97927C10.8858 10.1408 10.2224 10.7724 10.1142 10.8845Z" fill="#AFAFAF"/>
<path d="M8 0C3.578 0 0 3.52641 0 7.8833C0 12.2408 3.57861 15.7666 8 15.7666C12.422 15.7666 16 12.2402 16 7.8833C16 3.52581 12.4214 0 8 0ZM8 14.8428C4.09619 14.8428 0.9375 11.7296 0.9375 7.8833C0.9375 4.03644 4.0968 0.923824 8 0.923824C11.9038 0.923824 15.0625 4.03704 15.0625 7.8833C15.0625 11.7302 11.9032 14.8428 8 14.8428Z" fill="#AFAFAF"/>
</svg>
