<svg xmlns="http://www.w3.org/2000/svg" width="56" height="30" viewBox="0 0 56 30"><g><g><g/><g><g><g><path fill="#363636" fill-opacity=".9" d="M54.63 16.972c.756 0 1.37.665 1.37 1.481v4.167c0 .816-.614 1.481-1.37 1.481h-2.205v3.868c0 .82-.614 1.485-1.369 1.485H43.06c-.753 0-1.366-.666-1.366-1.485v-3.868H31.05c-.453 0-.82-.398-.82-.89 0-.49.367-.89.82-.89h23.31v-3.57H1.641v3.57h25.623c.453 0 .82.4.82.89 0 .492-.367.89-.82.89H14.306v3.868c0 .82-.614 1.485-1.37 1.485H4.942c-.753 0-1.366-.666-1.366-1.485v-3.868H1.366C.613 24.101 0 23.436 0 22.62v-4.167c0-.816.613-1.481 1.366-1.48h6.63a7.942 7.942 0 0 1-1.435-4.579v-.612c0-.491.367-.89.82-.89.453 0 .82.399.82.89v.612c0 1.796.779 3.484 2.096 4.578h6.435c1.318-1.094 2.096-2.782 2.096-4.578V7.801c0-3.177-2.383-5.761-5.312-5.761-2.93 0-5.315 2.584-5.315 5.761 0 .491-.368.89-.82.89-.454 0-.82-.399-.82-.89 0-4.158 3.12-7.54 6.955-7.54h5.5c1.175 0 2.28.327 3.242.901A6.485 6.485 0 0 1 25.545.26h5.5c1.176 0 2.282.328 3.246.903A6.485 6.485 0 0 1 37.579.26h5.5c3.723 0 6.751 3.285 6.751 7.322v5.03c0 1.585-.48 3.11-1.336 4.36h6.137zM5.216 27.675h7.45V24.1h-7.45zm18.913-15.062v-5.03c0-.604-.091-1.185-.256-1.73l-.003-.007-.004-.014C23.187 3.63 21.27 2.04 19.017 2.04h-1.021c1.51 1.384 2.473 3.452 2.473 5.761v4.593a7.941 7.941 0 0 1-1.435 4.578h3.127c1.235-1.055 1.966-2.664 1.966-4.36zm6.73-.218V7.8c0-1.531-.555-2.976-1.561-4.068-1.007-1.091-2.34-1.693-3.751-1.693-.613 0-1.216.116-1.786.339a7.389 7.389 0 0 1 1.384 2.134c.133-.016.267-.026.402-.026 2.341 0 4.247 2.561 4.247 5.71 0 3.147-1.906 5.707-4.247 5.707-.164 0-.327-.012-.489-.037a7.526 7.526 0 0 1-.628 1.106h4.336c1.316-1.093 2.093-2.78 2.093-4.577zm-5.09-4.813v.783c.335.265.62.545.88.801.477.471.884.87 1.502 1.121l.002-.091c0-2.11-1.11-3.837-2.495-3.926.072.426.111.864.111 1.312zm0 5.03c0 .512-.05 1.017-.147 1.51.941-.044 1.776-.88 2.212-2.073-.93-.316-1.54-.838-2.065-1.347zm10.392-5.03c0-3.056-2.294-5.542-5.114-5.542H30.02c.15.138.297.282.438.434 1.316 1.428 2.041 3.32 2.041 5.327v4.594a7.947 7.947 0 0 1-1.432 4.577h3.128c1.235-1.055 1.966-2.664 1.966-4.36zm6.731.219c0-1.532-.554-2.977-1.56-4.069-1.008-1.091-2.34-1.693-3.752-1.693a4.9 4.9 0 0 0-1.787.34 7.391 7.391 0 0 1 1.383 2.134c.134-.017.269-.027.404-.027 2.34 0 4.243 2.562 4.243 5.71 0 .455-.04.914-.12 1.361l-.007.033v.005c-.474 2.54-2.162 4.308-4.116 4.308-.164 0-.327-.012-.49-.037a7.532 7.532 0 0 1-.627 1.106h4.332c1.319-1.094 2.097-2.781 2.097-4.577zM37.69 6.27c.071.426.11.864.11 1.313v.782c.336.265.62.545.88.801.477.47.883.868 1.5 1.12l.001-.09c0-2.111-1.108-3.838-2.491-3.926zm.11 6.343c0 .511-.05 1.017-.146 1.509.938-.041 1.78-.85 2.216-2.072-.933-.316-1.543-.839-2.07-1.349zm4.69-10.139c1.317 1.428 2.042 3.32 2.042 5.327v4.594a7.938 7.938 0 0 1-1.435 4.577h3.127c1.235-1.053 1.966-2.662 1.966-4.36v-5.03c0-3.056-2.293-5.542-5.111-5.542h-1.027c.15.138.298.282.438.434zm8.295 21.627h-7.45v3.574h7.45z"/></g><g><path fill="#363636" fill-opacity=".9" d="M9.27 10.198c0-3.147 1.905-5.708 4.246-5.708 2.34 0 4.243 2.56 4.243 5.708s-1.903 5.708-4.243 5.708c-2.341 0-4.246-2.56-4.246-5.708zm2.434-2.82c1.45.352 2.219 1.108 2.912 1.79.477.471.884.87 1.501 1.12l.002-.09c0-2.166-1.168-3.929-2.603-3.929-.703 0-1.342.424-1.812 1.11zm-.793 2.82c0 2.13 1.193 3.929 2.605 3.929.99 0 1.854-.84 2.293-2.073-1.068-.361-1.714-.995-2.296-1.568-.659-.65-1.24-1.22-2.489-1.437a5.78 5.78 0 0 0-.113 1.149z"/></g></g></g></g></g></svg>