<svg xmlns="http://www.w3.org/2000/svg" width="47" height="47" viewBox="0 0 47 47"><defs><clipPath id="axa1a"><path fill="#fff" d="M36 37v-.27h3.98c3.363 0 6.098-2.723 6.098-6.069v-7.233c0-3.346-2.735-6.068-6.097-6.068h-1.845l-.409 4.02h2.254c1.134 0 2.058.919 2.058 2.048v7.233c0 1.13-.924 2.048-2.058 2.048h-3.553L36 36.55V17h11v20zm-.02-.27H36v-.18z"/></clipPath><clipPath id="axa1b"><path fill="#fff" d="M0 23V0h23v23zm11.75-.533c5.98 0 10.829-4.826 10.829-10.779C22.579 5.736 17.73.91 11.749.91 5.77.91.92 5.736.92 11.688c0 5.953 4.849 10.779 10.83 10.779z"/></clipPath><clipPath id="axa1c"><path fill="#fff" d="M4 19V4h15v15zm7.748-.182c3.953 0 7.157-3.19 7.157-7.124 0-3.935-3.204-7.124-7.157-7.124S4.59 7.76 4.59 11.694c0 3.934 3.205 7.124 7.158 7.124z"/></clipPath><clipPath id="axa1d"><path fill="#fff" d="M8 46V11h31v35zm.93-34.31l3.523 30.927A3.666 3.666 0 0 0 16.1 45.86h15.546a3.666 3.666 0 0 0 3.648-3.243l3.523-30.927z"/></clipPath><clipPath id="axa1e"><path fill="#fff" d="M13 42V16h22v26zm.6-25.06l2.837 24.901h14.89l2.836-24.901z"/></clipPath><clipPath id="axa1f"><path fill="#fff" d="M29 17V0h9v17zm4.342-.06L37.39 1.902 33.665.91 29.35 16.94z"/></clipPath><clipPath id="axa1g"><path fill="#fff" d="M25 17V0h9v17zm4.341-.06L33.39 1.902 29.665.91 25.35 16.94z"/></clipPath><clipPath id="axa1h"><path fill="#fff" d="M18 24v-3h3v3zm2.776-1.706a.914.914 0 0 0-.918-.914.918.918 0 0 0-.918.914.918.918 0 0 0 1.836 0z"/></clipPath><clipPath id="axa1i"><path fill="#fff" d="M23 31v-.861a.918.918 0 0 0 1.796-.265.918.918 0 0 0-.651-.874H25v2zm0-2h.611a.918.918 0 0 0-.611.609zm.878-.04c-.09 0-.18.014-.267.04h.534a.917.917 0 0 0-.267-.04zm-.918.914c0 .09.014.179.04.265v-.53a.904.904 0 0 0-.04.265z"/></clipPath><clipPath id="axa1j"><path fill="#fff" d="M20 37v-1.147a.922.922 0 0 0 1.547.457.917.917 0 0 0 .269-.646.918.918 0 0 0-1.816-.189V34h2v3zm-.02-1.336c0 .063.007.127.02.189v-.378a.904.904 0 0 0-.02.189z"/></clipPath><clipPath id="axa1k"><path fill="#fff" d="M26 39v-3h3v3zm1.718-2.36a.918.918 0 0 0-.918.914.918.918 0 0 0 1.836 0 .918.918 0 0 0-.918-.914z"/></clipPath><clipPath id="axa1l"><path fill="#fff" d="M0 47V0h11.747C5.27 0 0 5.245 0 11.692c0 2.82 1.023 5.545 2.881 7.67a11.764 11.764 0 0 0 6.43 3.77l.748 6.565a.917.917 0 0 0 1.016.805.915.915 0 0 0 .809-1.01L9.96 12.607h2.217l3.342 29.34c.053.461.446.81.913.81h14.89c.466 0 .859-.349.912-.81l3.342-29.34h2.217l-3.407 29.91a2.747 2.747 0 0 1-2.737 2.433H16.104a2.747 2.747 0 0 1-2.737-2.432l-.553-4.86a.918.918 0 0 0-1.824.206l.553 4.86a4.58 4.58 0 0 0 4.56 4.053H31.65a4.58 4.58 0 0 0 4.56-4.053l.58-5.083h3.196c3.868 0 7.015-3.132 7.015-6.982V47zM47 0v23.427c0-3.85-3.147-6.982-7.015-6.982h-.782l.53-4.648a.91.91 0 0 0-.228-.711.92.92 0 0 0-.684-.305h-2.874l2.326-8.638a.913.913 0 0 0-.65-1.119L33.9.031a.922.922 0 0 0-1.124.646l-.03.111-2.838-.757a.922.922 0 0 0-1.125.646l-2.72 10.104H23.46C22.991 4.758 17.917 0 11.747 0zM27.47 12.608h2.092l-.922 3.422h-2.09zm3.994 0h2.09l-.92 3.422h-2.091zm4.798-10.055l-2.216 8.228h-2.09l2.355-8.748zm-5.944-.52l1.95.52-2.214 8.228h-2.091zm-18.57-.206c5.156 0 9.405 3.94 9.868 8.954h-1.845c-.456-4.004-3.88-7.126-8.024-7.126-4.452 0-8.075 3.605-8.075 8.037 0 1.768.566 3.445 1.636 4.851a8.15 8.15 0 0 0 3.555 2.658l.228 1.996c-4.21-1.17-7.255-5.061-7.255-9.505 0-5.44 4.446-9.865 9.911-9.865zm1.59 8.951l2.288-3.945a6.204 6.204 0 0 1 2.293 3.945zm-1.59-.913l-2.29-3.948a6.23 6.23 0 0 1 4.58 0zm-3.635 2.743l.507 4.457a6.271 6.271 0 0 1-3.042-4.457zm-2.537-1.827a6.204 6.204 0 0 1 2.293-3.948l2.29 3.948zm19.994 1.827l-.92 3.422H14.414l-.39-3.422zm4.932 28.323h-13.25l-2.629-23.074H33.13zm8.035-18.638h1.448c.629 0 1.14.509 1.14 1.134v7.233c0 .626-.511 1.135-1.14 1.135h-2.53zm6.627 8.367c0 2.842-2.323 5.155-5.179 5.155h-2.988l.25-2.193h2.738a2.972 2.972 0 0 0 2.976-2.962v-7.233a2.972 2.972 0 0 0-2.976-2.962h-1.24l.25-2.192h.99c2.856 0 5.18 2.312 5.18 5.154z"/></clipPath><clipPath id="axa1m"><path fill="#fff" d="M10 35v-3h3v3zm1.997-.67a.918.918 0 0 0 .269-.646.92.92 0 0 0-.269-.647.926.926 0 0 0-1.298 0 .914.914 0 0 0 .649 1.56.927.927 0 0 0 .649-.267z"/></clipPath></defs><g><g><g><path fill="#fff" d="M39.98 17.36h-1.844l-.409 4.02h2.254c1.134 0 2.058.919 2.058 2.048v7.233c0 1.13-.924 2.048-2.058 2.048h-3.553l-.448 4.02h4c3.363 0 6.098-2.722 6.098-6.068v-7.233c0-3.346-2.735-6.068-6.097-6.068z"/><path fill="none" d="M39.98 17.36h-1.844l-.409 4.02h2.254c1.134 0 2.058.919 2.058 2.048v7.233c0 1.13-.924 2.048-2.058 2.048h-3.553l-.448 4.02h4c3.363 0 6.098-2.722 6.098-6.068v-7.233c0-3.346-2.735-6.068-6.097-6.068z" clip-path="url(&quot;#axa1a&quot;)"/></g><g><path fill="#fff6e9" d="M11.75 22.467c5.98 0 10.829-4.826 10.829-10.779C22.579 5.736 17.73.91 11.749.91 5.77.91.92 5.736.92 11.688c0 5.953 4.849 10.779 10.83 10.779z"/><path fill="none" d="M11.75 22.467c5.98 0 10.829-4.826 10.829-10.779C22.579 5.736 17.73.91 11.749.91 5.77.91.92 5.736.92 11.688c0 5.953 4.849 10.779 10.83 10.779z" clip-path="url(&quot;#axa1b&quot;)"/></g><g><path fill="#fbf1e2" d="M11.748 18.818c3.953 0 7.157-3.19 7.157-7.124 0-3.935-3.204-7.124-7.157-7.124S4.59 7.76 4.59 11.694c0 3.934 3.205 7.124 7.158 7.124z"/><path fill="none" d="M11.748 18.818c3.953 0 7.157-3.19 7.157-7.124 0-3.935-3.204-7.124-7.157-7.124S4.59 7.76 4.59 11.694c0 3.934 3.205 7.124 7.158 7.124z" clip-path="url(&quot;#axa1c&quot;)"/></g><g><path fill="#fff" d="M8.93 11.69l3.523 30.927A3.666 3.666 0 0 0 16.1 45.86h15.546a3.666 3.666 0 0 0 3.648-3.243l3.523-30.927z"/><path fill="none" d="M8.93 11.69l3.523 30.927A3.666 3.666 0 0 0 16.1 45.86h15.546a3.666 3.666 0 0 0 3.648-3.243l3.523-30.927z" clip-path="url(&quot;#axa1d&quot;)"/></g><g><path fill="#eb694c" d="M13.6 16.94l2.837 24.901h14.89l2.836-24.901z"/><path fill="none" d="M13.6 16.94l2.837 24.901h14.89l2.836-24.901z" clip-path="url(&quot;#axa1e&quot;)"/></g><g><path fill="#fff" d="M33.342 16.94L37.39 1.902 33.665.91 29.35 16.94z"/><path fill="none" d="M33.342 16.94L37.39 1.902 33.665.91 29.35 16.94z" clip-path="url(&quot;#axa1f&quot;)"/></g><g><path fill="#fff" d="M29.341 16.94L33.39 1.902 29.665.91 25.35 16.94z"/><path fill="none" d="M29.341 16.94L33.39 1.902 29.665.91 25.35 16.94z" clip-path="url(&quot;#axa1g&quot;)"/></g><g><g><path d="M20.776 22.294a.914.914 0 0 0-.918-.914.918.918 0 0 0-.918.914.918.918 0 0 0 1.836 0z"/><path fill="none" d="M20.776 22.294a.914.914 0 0 0-.918-.914.918.918 0 0 0-.918.914.918.918 0 0 0 1.836 0z" clip-path="url(&quot;#axa1h&quot;)"/></g><g><path d="M23.878 28.96a.918.918 0 0 0-.918.914.918.918 0 0 0 1.836 0 .918.918 0 0 0-.918-.914z"/><path fill="none" d="M23.878 28.96a.918.918 0 0 0-.918.914.918.918 0 0 0 1.836 0 .918.918 0 0 0-.918-.914z" clip-path="url(&quot;#axa1i&quot;)"/></g><g><path d="M20.898 34.75a.914.914 0 0 0-.918.914.913.913 0 0 0 .918.913.917.917 0 0 0 .918-.914.918.918 0 0 0-.918-.913z"/><path fill="none" d="M20.898 34.75a.914.914 0 0 0-.918.914.913.913 0 0 0 .918.913.917.917 0 0 0 .918-.914.918.918 0 0 0-.918-.913z" clip-path="url(&quot;#axa1j&quot;)"/></g><g><path d="M27.718 36.64a.918.918 0 0 0-.918.914.918.918 0 0 0 1.836 0 .918.918 0 0 0-.918-.914z"/><path fill="none" d="M27.718 36.64a.918.918 0 0 0-.918.914.918.918 0 0 0 1.836 0 .918.918 0 0 0-.918-.914z" clip-path="url(&quot;#axa1k&quot;)"/></g><g><path d="M39.985 16.445c3.868 0 7.015 3.132 7.015 6.982v7.233c0 3.85-3.147 6.982-7.015 6.982H36.79l-.58 5.083a4.58 4.58 0 0 1-4.56 4.053H16.104a4.58 4.58 0 0 1-4.56-4.053l-.554-4.86a.918.918 0 1 1 1.824-.206l.553 4.86a2.747 2.747 0 0 0 2.737 2.432h15.545a2.747 2.747 0 0 0 2.737-2.432l3.407-29.91h-2.217l-3.342 29.338a.916.916 0 0 1-.912.811h-14.89a.917.917 0 0 1-.912-.81l-3.342-29.34H9.96l1.924 16.883a.915.915 0 0 1-.81 1.011.917.917 0 0 1-1.015-.805l-.748-6.566a11.764 11.764 0 0 1-6.43-3.768A11.653 11.653 0 0 1 0 11.692C0 5.245 5.27 0 11.747 0c6.17 0 11.244 4.758 11.712 10.78h2.603L28.782.678a.922.922 0 0 1 1.124-.646l2.84.757.03-.11A.922.922 0 0 1 33.9.031l3.723.992c.49.13.78.632.65 1.12l-2.326 8.637h2.874a.92.92 0 0 1 .684.305.91.91 0 0 1 .228.711l-.53 4.648zM26.55 16.03h2.09l.922-3.422H27.47zm3.993 0h2.09l.921-3.422h-2.09zM34.31 2.033l-2.355 8.748h2.09l2.216-8.228zm-6.348 8.748h2.09l2.216-8.228-1.951-.52zm-26.127.911c0 4.444 3.045 8.335 7.255 9.505l-.228-1.996a8.15 8.15 0 0 1-3.555-2.658 7.943 7.943 0 0 1-1.636-4.851c0-4.432 3.623-8.037 8.075-8.037 4.144 0 7.568 3.122 8.024 7.126h1.845c-.463-5.014-4.712-8.954-9.869-8.954-5.465 0-9.911 4.426-9.911 9.865zm16.083-.914a6.204 6.204 0 0 0-2.293-3.945l-2.289 3.945zm-3.882-4.861a6.23 6.23 0 0 0-4.58 0l2.29 3.948zm-8.459 6.691a6.271 6.271 0 0 0 3.042 4.457l-.507-4.457zm4.581-1.827l-2.29-3.948a6.204 6.204 0 0 0-2.293 3.948zm3.866 1.827l.39 3.422h10.234l.921-3.422zm19.105 5.249H14.623l2.628 23.074h13.25zm4.325 13.938h2.53c.629 0 1.14-.51 1.14-1.135v-7.233c0-.625-.511-1.134-1.14-1.134h-1.448zm7.71-8.368c0-2.842-2.324-5.154-5.18-5.154h-.99l-.25 2.193h1.24a2.972 2.972 0 0 1 2.976 2.961v7.233a2.972 2.972 0 0 1-2.976 2.962h-2.738l-.25 2.193h2.988c2.856 0 5.18-2.313 5.18-5.155z"/><path fill="none" d="M39.985 16.445c3.868 0 7.015 3.132 7.015 6.982v7.233c0 3.85-3.147 6.982-7.015 6.982H36.79l-.58 5.083a4.58 4.58 0 0 1-4.56 4.053H16.104a4.58 4.58 0 0 1-4.56-4.053l-.554-4.86a.918.918 0 1 1 1.824-.206l.553 4.86a2.747 2.747 0 0 0 2.737 2.432h15.545a2.747 2.747 0 0 0 2.737-2.432l3.407-29.91h-2.217l-3.342 29.338a.916.916 0 0 1-.912.811h-14.89a.917.917 0 0 1-.912-.81l-3.342-29.34H9.96l1.924 16.883a.915.915 0 0 1-.81 1.011.917.917 0 0 1-1.015-.805l-.748-6.566a11.764 11.764 0 0 1-6.43-3.768A11.653 11.653 0 0 1 0 11.692C0 5.245 5.27 0 11.747 0c6.17 0 11.244 4.758 11.712 10.78h2.603L28.782.678a.922.922 0 0 1 1.124-.646l2.84.757.03-.11A.922.922 0 0 1 33.9.031l3.723.992c.49.13.78.632.65 1.12l-2.326 8.637h2.874a.92.92 0 0 1 .684.305.91.91 0 0 1 .228.711l-.53 4.648zM26.55 16.03h2.09l.922-3.422H27.47zm3.993 0h2.09l.921-3.422h-2.09zM34.31 2.033l-2.355 8.748h2.09l2.216-8.228zm-6.348 8.748h2.09l2.216-8.228-1.951-.52zm-26.127.911c0 4.444 3.045 8.335 7.255 9.505l-.228-1.996a8.15 8.15 0 0 1-3.555-2.658 7.943 7.943 0 0 1-1.636-4.851c0-4.432 3.623-8.037 8.075-8.037 4.144 0 7.568 3.122 8.024 7.126h1.845c-.463-5.014-4.712-8.954-9.869-8.954-5.465 0-9.911 4.426-9.911 9.865zm16.083-.914a6.204 6.204 0 0 0-2.293-3.945l-2.289 3.945zm-3.882-4.861a6.23 6.23 0 0 0-4.58 0l2.29 3.948zm-8.459 6.691a6.271 6.271 0 0 0 3.042 4.457l-.507-4.457zm4.581-1.827l-2.29-3.948a6.204 6.204 0 0 0-2.293 3.948zm3.866 1.827l.39 3.422h10.234l.921-3.422zm19.105 5.249H14.623l2.628 23.074h13.25zm4.325 13.938h2.53c.629 0 1.14-.51 1.14-1.135v-7.233c0-.625-.511-1.134-1.14-1.134h-1.448zm7.71-8.368c0-2.842-2.324-5.154-5.18-5.154h-.99l-.25 2.193h1.24a2.972 2.972 0 0 1 2.976 2.961v7.233a2.972 2.972 0 0 1-2.976 2.962h-2.738l-.25 2.193h2.988c2.856 0 5.18-2.313 5.18-5.155z" clip-path="url(&quot;#axa1l&quot;)"/></g><g><path d="M11.997 34.33a.918.918 0 0 0 .269-.646.92.92 0 0 0-.269-.647.926.926 0 0 0-1.298 0 .914.914 0 0 0 .649 1.56.927.927 0 0 0 .649-.267z"/><path fill="none" d="M11.997 34.33a.918.918 0 0 0 .269-.646.92.92 0 0 0-.269-.647.926.926 0 0 0-1.298 0 .914.914 0 0 0 .649 1.56.927.927 0 0 0 .649-.267z" clip-path="url(&quot;#axa1m&quot;)"/></g></g></g></g></svg>