<svg xmlns="http://www.w3.org/2000/svg" width="48" height="53" viewBox="0 0 48 53"><g><g><g/><g><g><path fill="#3e3e3e" d="M16.4 22.26c.831 0 1.508.674 1.508 1.503v3.755c0 .829-.677 1.503-1.509 1.503h-4.37c-.832 0-1.509-.674-1.509-1.503v-3.755c0-.829.677-1.503 1.51-1.503zm-.015 1.517h-4.342v3.727h4.342z"/></g><g><path fill="#3e3e3e" d="M21.277 21.617a.76.76 0 0 0 .762-.759.76.76 0 0 0-.762-.758h-1.655a.76.76 0 0 0-.762.758.76.76 0 0 0 .762.759z"/></g><g><path fill="#3e3e3e" d="M33.42 28.78l1.17-1.166a.756.756 0 0 0 0-1.072.764.764 0 0 0-1.076 0l-1.17 1.165a.756.756 0 0 0 0 1.073.764.764 0 0 0 1.076 0z"/></g><g><path fill="#3e3e3e" d="M22.828 29.192l-1.599-.426a.758.758 0 1 0-.394 1.465l1.599.426a.758.758 0 1 0 .394-1.465z"/></g><g><path fill="#3e3e3e" d="M8.472 26.537a.76.76 0 0 0 .761-.759.76.76 0 0 0-.761-.758.76.76 0 0 0-.762.758.76.76 0 0 0 .762.759z"/></g><g><path fill="#3e3e3e" d="M20.192 25.327a.76.76 0 0 0 .761-.759.76.76 0 0 0-.761-.758.76.76 0 0 0-.762.758.76.76 0 0 0 .762.759z"/></g><g><path fill="#3e3e3e" d="M29.902 19.227a.76.76 0 0 0 .761-.759.76.76 0 0 0-.761-.758.76.76 0 0 0-.762.758.76.76 0 0 0 .762.759z"/></g><g><path fill="#3e3e3e" d="M32.76 36.93l-1.649 9.624a.761.761 0 1 0 1.502.255l1.648-9.623a.761.761 0 1 0-1.502-.255z"/></g><g><path fill="#3e3e3e" d="M26.776 38.594l-.863 10.067a.76.76 0 0 0 .694.82.76.76 0 0 0 .823-.691l.864-10.067a.76.76 0 0 0-.694-.82.76.76 0 0 0-.824.69z"/></g><g><path fill="#3e3e3e" d="M21.07 39.128v10.119a.76.76 0 0 0 .762.758.76.76 0 0 0 .761-.758V39.128a.76.76 0 0 0-.761-.758.76.76 0 0 0-.762.758z"/></g><g><path fill="#3e3e3e" d="M16.067 37.903a.76.76 0 0 0-.694.82l.862 10.067a.76.76 0 0 0 .824.691.76.76 0 0 0 .694-.82l-.863-10.067a.76.76 0 0 0-.823-.691z"/></g><g><path fill="#3e3e3e" d="M10.034 36.31a.759.759 0 0 0-.623.876l1.648 9.623a.761.761 0 0 0 1.502-.255l-1.648-9.623a.762.762 0 0 0-.88-.62z"/></g><g><path fill="#3e3e3e" d="M35.996 12.343c.822.818 1.039 2.097.61 3.6-.941 3.308-4.24 5.818-7.034 5.818-.883 0-1.664-.263-2.217-.814-.822-.818-1.038-2.096-.61-3.6.356-1.253 1.125-2.533 2.108-3.512 2.342-2.332 5.613-3.015 7.143-1.492zm-1.077 1.073c-.251-.25-.653-.377-1.142-.377-1.081 0-2.59.616-3.847 1.868-.793.79-1.436 1.857-1.72 2.854-.267.938-.186 1.708.222 2.114.251.25.653.376 1.142.376 1.081 0 2.59-.616 3.847-1.868.793-.79 1.436-1.856 1.72-2.854.267-.937.186-1.707-.222-2.113z"/></g><g><path fill="#3e3e3e" d="M37.737 6.577a.756.756 0 0 1-.212 1.052 38.752 38.752 0 0 1-6.432 3.416c-2.738 1.147-5.105 3.875-5.553 6.776-.245 1.586.13 2.968 1.054 3.889 1.02 1.016 2.49 1.266 3.907 1.05 2.925-.448 5.659-2.816 6.805-5.53 1.44-3.408 3.328-6.605 5.686-9.406l2.798-3.322a1.34 1.34 0 0 0-.08-1.824 1.354 1.354 0 0 0-1.832-.08l-3.337 2.786a.764.764 0 0 1-1.073-.094.756.756 0 0 1 .094-1.068L42.9 1.436a2.874 2.874 0 0 1 3.887.17 2.843 2.843 0 0 1 .17 3.87L44.16 8.8c-1.749 2.075-3.273 4.437-4.549 7.042 2.42 2.281 3.695 4.95 3.695 7.749 0 1.721-.253 1.933-2.212 9.726a.762.762 0 0 1-1.476-.376l.553-2.15c-.91.952-2.01 1.839-3.287 2.64-4.031 2.533-9.377 3.928-15.051 3.928-5.674 0-11.02-1.395-15.051-3.927-1.277-.802-2.376-1.689-3.287-2.642C6.69 43.225 6.54 42.631 6.546 42.673c.41 2.228 2.145 4.306 4.886 5.85 5.9 3.326 14.912 3.32 20.802 0 2.74-1.544 4.476-3.622 4.886-5.85.007-.043-.031.111 1.582-6.167a.762.762 0 0 1 1.476.376l-1.565 6.09c-.5 2.668-2.499 5.108-5.629 6.872-3.076 1.733-7.036 2.688-11.151 2.688s-8.075-.955-11.151-2.688c-3.13-1.764-5.129-4.204-5.63-6.872C.404 24.687.36 25.33.36 23.59c0-3.745 2.28-7.24 6.421-9.84 6.15-3.863 14.803-4.769 22.02-3.192.547-.36 1.119-.667 1.702-.911a37.23 37.23 0 0 0 6.178-3.28.764.764 0 0 1 1.056.21zm1.195 10.726c-.075.171-.149.343-.222.515-.135.32-.289.636-.46.947 1.308 1.463 1.97 3.084 1.97 4.825 0 3.293-2.309 6.11-6.677 8.146-3.374 1.573-7.86 2.55-11.71 2.55-7.709 0-18.388-3.717-18.388-10.696 0-3.293 2.31-6.11 6.678-8.147 3.374-1.572 7.86-2.55 11.71-2.55 1.323 0 2.709.11 4.126.324.39-.514.822-.99 1.277-1.42a31.565 31.565 0 0 0-5.403-.458c-5.39 0-10.447 1.311-14.239 3.693-3.682 2.313-5.71 5.353-5.71 8.558 0 3.676 2.599 6.603 5.71 8.558 3.792 2.382 8.849 3.693 14.239 3.693 5.39 0 10.447-1.311 14.238-3.693 3.11-1.953 5.711-4.897 5.711-8.558 0-2.228-.981-4.384-2.85-6.287zm-2.616 4.008c1.123 1.03 1.885 2.18 2.26 3.401.079-.358.121-.732.121-1.122 0-1.233-.441-2.406-1.314-3.496-.326.43-.684.837-1.067 1.217zm-6.385 3.03c-1.035.052-2.08-.111-3.03-.575l-2.08 2.071 2.453 2.442 3.307-3.292zm-4.414-1.559c-1.15-1.145-1.692-2.756-1.553-4.582a22.858 22.858 0 0 0-2.131-.103c-3.1 0-6.785.752-9.618 1.964a.763.763 0 0 1-1-.398.757.757 0 0 1 .399-.996c3.056-1.307 6.877-2.087 10.219-2.087.77 0 1.57.04 2.389.121a9.583 9.583 0 0 1 .831-2.079 25.556 25.556 0 0 0-3.22-.212c-3.64 0-7.88.923-11.064 2.407-2.646 1.234-5.8 3.41-5.8 6.773 0 .385.042.755.12 1.11.469-1.538 1.544-2.953 3.179-4.16a.764.764 0 0 1 1.065.157c.25.336.18.811-.158 1.06-1.878 1.389-2.83 2.984-2.83 4.743 0 .25.02.5.06.744 1.121 1.328 2.728 2.326 4.177 3.028 3.231 1.564 7.437 2.498 11.25 2.498 3.641 0 7.88-.923 11.065-2.407 1.517-.707 3.202-1.725 4.363-3.098.04-.251.061-.507.061-.765 0-1.516-.726-2.922-2.16-4.185-1.053.798-2.21 1.384-3.39 1.718a1.461 1.461 0 0 1-.075 1.99l-3.382 3.366c-.573.57-1.506.57-2.08 0l-2.527-2.517a1.45 1.45 0 0 1-.431-1.035c0-.39.153-.758.43-1.035l1.922-1.913a4.87 4.87 0 0 1-.11-.107z"/></g><g><path fill="#3e3e3e" d="M32.998 15.5l-1.512-.25a.759.759 0 0 0-.25 1.496l1.513.25a.759.759 0 0 0 .25-1.496z"/></g></g></g></g></svg>