<svg xmlns="http://www.w3.org/2000/svg" width="41" height="37"><path fill="#ff5d29" d="M19.805 33.37a3.405 3.405 0 11-6.81 0 3.405 3.405 0 016.81 0zm10.382-3.405a3.405 3.405 0 110 6.81 3.405 3.405 0 010-6.81zm6.38-3.531s-.347 1.848-2.114 1.848H13.296c-2.108 0-2.197-2.317-2.197-2.317S8.851 9.287 8.74 8.28c-.11-1.008-1.4-1.755-1.4-1.755l-5.543-2.59C-1.24 2.349.14-.671 1.796.023c7.03 3.316 10.296 4.949 10.506 6.255.212 1.31.582 4.46.582 4.46v.021a2 2 0 01.073-.02H38.87c3.13 0 1.886 3.248 1.886 3.243zm-1.871-5.52l-.043.003h-20.51l.422 3.352h19.133zm1.997-6.759H13.294l.45 3.583h21.891z"/></svg>