<svg xmlns="http://www.w3.org/2000/svg" width="18" height="20"><path fill="#6b6b6b" fill-opacity=".44" d="M17.124 4.47a.993.993 0 01-.94 1.305h-.255l-1.016 12.562A1.817 1.817 0 0113.112 20H5.109c-.934 0-1.725-.73-1.8-1.662L2.291 5.775H1.83A.993.993 0 01.89 4.47l.441-1.323a1.232 1.232 0 011.17-.843h3.711V1.095A1.097 1.097 0 017.308 0h3.399c.604 0 1.095.491 1.095 1.095v1.209h3.711c.531 0 1.002.339 1.17.843zM7.385 2.304h3.245V1.172H7.385zm7.368 3.47H3.468l1.008 12.469a.639.639 0 00.633.585h8.003a.64.64 0 00.633-.585zm1.18-1.171l-.362-1.086a.061.061 0 00-.058-.041H2.502a.06.06 0 00-.058.041l-.362 1.086z"/><path fill="#6b6b6b" fill-opacity=".44" d="M11.875 18.204h.031c.31 0 .569-.242.585-.555l.55-10.562a.586.586 0 00-1.17-.061l-.55 10.562a.586.586 0 00.554.616zm-6.328-.554a.586.586 0 001.17-.063L6.141 7.024a.586.586 0 10-1.17.064zm3.459.554a.586.586 0 00.586-.586V7.056a.586.586 0 10-1.172 0v10.562c0 .324.262.586.586.586z"/></svg>