<svg xmlns="http://www.w3.org/2000/svg" width="22" height="22"><path d="M22 11v3.285a3.005 3.005 0 01-3.001 3.001 3.006 3.006 0 01-2.964-2.526A6.281 6.281 0 0111 17.287 6.294 6.294 0 014.713 11 6.294 6.294 0 0111 4.713a6.28 6.28 0 014.997 2.477V6.11h1.29v8.175c0 .944.768 1.712 1.712 1.712s1.712-.768 1.712-1.712V11c0-5.355-4.356-9.71-9.711-9.71S1.29 5.644 1.29 11s4.355 9.71 9.71 9.71V22c-2.938 0-5.7-1.144-7.778-3.222A10.928 10.928 0 010 11c0-2.938 1.144-5.7 3.222-7.778A10.928 10.928 0 0111 0c2.938 0 5.7 1.144 7.778 3.222A10.928 10.928 0 0122 11zm-6.002 0A5.003 5.003 0 0011 6.003 5.003 5.003 0 006.003 11 5.003 5.003 0 0011 15.997 5.003 5.003 0 0015.997 11z"/></svg>