<svg xmlns="http://www.w3.org/2000/svg" width="16" height="16"><path fill="#afafaf" d="M11.99 9.844c.063.478-.145.578-1.225 1.634-1.322 1.407-5.99-1.74-6.69-4.88-.246-1.104.138-1.309.791-1.96.522-.52.665-.698 1.03-.698.299 0 .543.17.694.426.882 1.651 1.298 1.938.4 2.741.254.587 1.23 1.515 1.78 1.772.06-.062.155-.158.298-.3.604-.567 1.253-.038 1.624.179.848.493 1.218.61 1.298 1.086zm-.947.134l-1.338-.774c-.025.002-.004-.013-.248.232-.272.275-.511.564-1.259.132-.732-.423-1.958-1.56-2.137-2.488 0-.475.407-.627.535-.82-.072-.158-.288-.544-.73-1.37-.166.158-.816.812-.913.902-.236.21.19 1.286.382 1.648.604 1.14 2.08 2.665 3.502 3.246.75.307 1.202.28 1.277.197.108-.112.772-.744.929-.905z"/><path fill="#afafaf" d="M16 7.883c0 4.357-3.578 7.884-8 7.884-4.421 0-8-3.526-8-7.884C0 3.526 3.578 0 8 0c4.421 0 8 3.526 8 7.883zm-.938 0c0-3.846-3.158-6.96-7.062-6.96C4.097.924.937 4.037.937 7.884s3.16 6.96 7.063 6.96c3.903 0 7.063-3.113 7.063-6.96z"/></svg>