<svg xmlns="http://www.w3.org/2000/svg" width="10" height="12"><path fill="#fff" d="M9.386 4.398c0 1.114-.702 2.688-2.086 4.678a31.429 31.429 0 01-2.05 2.628L4.988 12l-.262-.296a31.387 31.387 0 01-2.05-2.628C1.292 7.086.59 5.512.59 4.398A4.403 4.403 0 014.988 0a4.403 4.403 0 014.398 4.398zm-.702 0A3.7 3.7 0 004.988.702a3.7 3.7 0 00-3.696 3.696c0 .954.678 2.433 1.96 4.278a31.877 31.877 0 001.736 2.257 31.904 31.904 0 001.74-2.263c1.28-1.842 1.956-3.319 1.956-4.272z"/><path fill="#fff" d="M7.591 4.226A2.599 2.599 0 014.996 6.82 2.599 2.599 0 012.4 4.226 2.599 2.599 0 014.996 1.63 2.599 2.599 0 017.59 4.226zm-.701 0c0-1.045-.85-1.894-1.894-1.894-1.045 0-1.894.85-1.894 1.894s.85 1.894 1.894 1.894S6.89 5.27 6.89 4.226z"/></svg>