<svg xmlns="http://www.w3.org/2000/svg" width="26" height="25"><path fill="#fff" d="M16.284 23.967c-3.603-1.213-6.948-3.189-9.672-5.714-2.725-2.525-4.857-5.625-6.166-8.964a6.24 6.24 0 01-.369-3.293 6.581 6.581 0 011.26-2.924A7.275 7.275 0 013.886.967 7.739 7.739 0 017.371.16c.385 0 .718.25.799.598l1.282 5.544a.721.721 0 01-.221.694l-2.19 2.03c2.066 3.807 5.418 6.915 9.527 8.83l2.19-2.03a.86.86 0 01.748-.205l5.982 1.188c.377.075.646.383.646.74a6.354 6.354 0 01-.87 3.23 7.089 7.089 0 01-2.272 2.363 7.74 7.74 0 01-4.21 1.239c-.843 0-1.68-.138-2.498-.414zM6.72 1.707c-1.633.167-3.083.96-4.045 2.233-1.082 1.432-1.335 3.193-.693 4.832 2.517 6.42 7.933 11.44 14.861 13.772a6 6 0 005.213-.641c1.374-.892 2.23-2.236 2.41-3.75l-4.866-.966-2.288 2.12a.865.865 0 01-.925.15c-4.858-2.115-8.79-5.76-11.073-10.263a.716.716 0 01.161-.857l2.288-2.12zm18.597 11.32c-.451 0-.817-.34-.817-.757 0-5.843-5.129-10.596-11.433-10.596-.451 0-.817-.34-.817-.757 0-.418.366-.757.817-.757 3.49 0 6.771 1.26 9.24 3.547 2.467 2.287 3.826 5.328 3.826 8.563 0 .418-.365.757-.816.757z"/><path fill="#fff" d="M22.05 13.02c-.451 0-.817-.34-.817-.758 0-4.173-3.663-7.568-8.166-7.568-.451 0-.817-.34-.817-.757 0-.418.366-.757.817-.757 5.403 0 9.8 4.074 9.8 9.082 0 .418-.366.757-.817.757z"/><path fill="#fff" d="M18.783 13.022c-.45 0-.816-.34-.816-.757 0-2.504-2.198-4.541-4.9-4.541-.451 0-.817-.34-.817-.757 0-.418.366-.757.817-.757 3.602 0 6.533 2.716 6.533 6.055 0 .418-.366.757-.817.757z"/></svg>