<svg xmlns="http://www.w3.org/2000/svg" width="47" height="48"><path fill="#3e3e3e" fill-opacity=".79" d="M20.776 22.693a.92.92 0 00-.918-.923.923.923 0 000 1.845.923.923 0 00.918-.922zm3.102 6.737a.923.923 0 000 1.845.922.922 0 000-1.845zm-2.98 5.84a.92.92 0 00-.918.923.917.917 0 101.836 0 .922.922 0 00-.918-.923zm6.82 1.91a.923.923 0 000 1.845.923.923 0 000-1.845z"/><path fill="#3e3e3e" fill-opacity=".79" d="M39.985 16.794c3.868 0 7.015 3.162 7.015 7.048v7.303c0 3.887-3.147 7.049-7.015 7.049H36.79l-.58 5.131a4.595 4.595 0 01-4.56 4.093H16.104a4.595 4.595 0 01-4.56-4.093l-.554-4.906a.921.921 0 01.808-1.02.92.92 0 011.016.813l.553 4.905a2.757 2.757 0 002.737 2.456h15.545a2.757 2.757 0 002.737-2.456l3.407-30.198h-2.217l-3.342 29.622a.92.92 0 01-.912.818h-14.89a.92.92 0 01-.912-.818l-3.342-29.622H9.96l1.924 17.046a.922.922 0 01-.81 1.02.92.92 0 01-1.015-.812l-.748-6.63a11.742 11.742 0 01-6.43-3.804A11.831 11.831 0 010 11.994C0 5.485 5.27.19 11.747.19c6.17 0 11.244 4.804 11.712 10.885h2.603L28.782.874A.921.921 0 0129.907.22l2.838.765.03-.112A.921.921 0 0133.9.22l3.724 1.003c.49.132.78.638.65 1.13l-2.326 8.72h2.874a.925.925 0 01.912 1.026l-.53 4.694h.782zm-13.435-.42h2.09l.922-3.455H27.47zm3.993 0h2.09l.921-3.455h-2.09zM34.31 2.242l-2.355 8.833h2.09l2.216-8.308zm-6.348 8.833h2.09l2.216-8.308-1.951-.525zm-26.127.92c0 4.486 3.045 8.415 7.255 9.596l-.228-2.016a8.157 8.157 0 01-3.555-2.683 8.07 8.07 0 01-1.636-4.898c0-4.474 3.623-8.114 8.075-8.114 4.144 0 7.568 3.152 8.024 7.195h1.845c-.463-5.062-4.712-9.04-9.869-9.04-5.465 0-9.911 4.468-9.911 9.96zm16.083-.923a6.276 6.276 0 00-2.293-3.983l-2.289 3.983zm-3.882-4.908a6.178 6.178 0 00-4.58 0l2.29 3.986zm-8.459 6.755a6.332 6.332 0 003.042 4.5l-.507-4.5zm4.581-1.844l-2.29-3.986a6.277 6.277 0 00-2.293 3.986zm3.866 1.844l.39 3.455h10.234l.921-3.455zm19.105 5.3H14.623l2.628 23.295h13.25zm4.325 14.071h2.53c.629 0 1.14-.513 1.14-1.145v-7.303c0-.631-.511-1.145-1.14-1.145h-1.448zm7.71-8.448c0-2.869-2.324-5.204-5.18-5.204h-.99l-.25 2.214h1.24a2.986 2.986 0 012.976 2.99v7.303a2.986 2.986 0 01-2.976 2.99h-2.738l-.25 2.214h2.988c2.856 0 5.18-2.335 5.18-5.204z"/><path fill="#3e3e3e" fill-opacity=".79" d="M11.997 34.855a.932.932 0 00.269-.652.922.922 0 00-.918-.923.922.922 0 10.649 1.575z"/></svg>