<svg xmlns="http://www.w3.org/2000/svg" width="50" height="45"><path fill="#323232" fill-opacity=".9" d="M6.555 4.13a.756.756 0 00-.765.747c0 .412.343.746.765.746a.93.93 0 01.94.917c0 .413.343.747.765.747a.756.756 0 00.766-.747c0-1.329-1.109-2.41-2.47-2.41zm42.676-.43h-6.786a.756.756 0 00-.765.747c0 .412.343.746.765.746h6.786a.756.756 0 00.765-.746.756.756 0 00-.765-.747zm-8.821 0H16.685a.756.756 0 00-.765.747c0 .412.343.746.765.746H40.41a.756.756 0 00.765-.746.756.756 0 00-.765-.747zm8.821 3.72h-6.786a.756.756 0 00-.765.747c0 .412.343.746.765.746h6.786a.756.756 0 00.765-.746.756.756 0 00-.765-.747zm-8.821 0H16.685a.756.756 0 00-.765.747c0 .412.343.746.765.746H40.41a.756.756 0 00.765-.746.756.756 0 00-.765-.747z"/><path fill="#323232" fill-opacity=".9" d="M13.104 6.543c0 3.525-2.94 6.393-6.552 6.393C2.939 12.936 0 10.068 0 6.543S2.94.15 6.552.15c3.613 0 6.552 2.868 6.552 6.393zm-1.53 0c0-2.702-2.253-4.9-5.022-4.9S1.53 3.841 1.53 6.543c0 2.701 2.252 4.9 5.021 4.9s5.021-2.199 5.021-4.9zM10.268 33.39c1.237 0 2.244.982 2.244 2.189v3.556c0 1.207-1.007 2.189-2.244 2.189H6.623c-1.237 0-2.243-.982-2.243-2.189V35.58c0-1.207 1.006-2.189 2.243-2.189zm.713 2.189a.705.705 0 00-.713-.696H6.623a.705.705 0 00-.712.696v3.556c0 .384.32.695.712.695h3.645a.705.705 0 00.713-.695zm7.567-2.189c1.237 0 2.244.982 2.244 2.189v3.556c0 1.207-1.007 2.189-2.244 2.189h-3.645c-1.237 0-2.243-.982-2.243-2.189V35.58c0-1.207 1.006-2.189 2.243-2.189zm.713 2.189a.705.705 0 00-.713-.696h-3.645a.705.705 0 00-.713.696v3.556c0 .384.32.695.713.695h3.645a.705.705 0 00.713-.695zm7.557-2.189c1.237 0 2.244.982 2.244 2.189v3.556c0 1.207-1.007 2.189-2.244 2.189h-3.645c-1.237 0-2.243-.982-2.243-2.189V35.58c0-1.207 1.006-2.189 2.243-2.189zm.713 2.189a.705.705 0 00-.712-.696h-3.646a.705.705 0 00-.712.696v3.556c0 .384.32.695.712.695h3.646a.705.705 0 00.712-.695zm7.567-2.189c1.237 0 2.244.982 2.244 2.189v3.556c0 1.207-1.007 2.189-2.244 2.189h-3.645c-1.237 0-2.243-.982-2.243-2.189V35.58c0-1.207 1.006-2.189 2.243-2.189zm.713 2.189a.705.705 0 00-.713-.696h-3.645a.705.705 0 00-.712.696v3.556c0 .384.32.695.712.695h3.645a.705.705 0 00.713-.695zm7.567-2.189c1.237 0 2.244.982 2.244 2.189v3.556c0 1.207-1.007 2.189-2.244 2.189h-3.645c-1.237 0-2.243-.982-2.243-2.189V35.58c0-1.207 1.006-2.189 2.243-2.189zm.713 2.189a.705.705 0 00-.712-.696h-3.646a.705.705 0 00-.712.696v3.556c0 .384.32.695.712.695h3.646a.705.705 0 00.712-.695z"/><path fill="#323232" fill-opacity=".9" d="M10.842 37.363c0 1.286-1.073 2.333-2.391 2.333S6.06 38.649 6.06 37.363c0-1.287 1.073-2.333 2.391-2.333s2.39 1.046 2.39 2.333zm-1.53 0a.851.851 0 00-.861-.84.851.851 0 00-.86.84c0 .463.386.84.86.84s.86-.377.86-.84zm9.8 0c0 1.286-1.073 2.333-2.391 2.333s-2.39-1.047-2.391-2.333c0-1.287 1.073-2.333 2.39-2.333 1.32 0 2.392 1.046 2.392 2.333zm-1.53 0a.851.851 0 00-.861-.84.851.851 0 00-.86.84c0 .463.386.84.86.84s.86-.377.86-.84zm9.81 0c0 1.286-1.073 2.333-2.391 2.333s-2.391-1.047-2.391-2.333c0-1.287 1.073-2.333 2.391-2.333s2.391 1.046 2.391 2.333zm-1.53 0a.851.851 0 00-.861-.84.851.851 0 00-.86.84c0 .463.386.84.86.84a.85.85 0 00.86-.84zm9.8 0c0 1.286-1.073 2.333-2.391 2.333s-2.391-1.047-2.391-2.333c0-1.287 1.073-2.333 2.391-2.333s2.39 1.046 2.39 2.333zm-1.53 0a.851.851 0 00-.861-.84.851.851 0 00-.86.84c0 .463.386.84.86.84s.86-.377.86-.84zm9.81 0c0 1.286-1.073 2.333-2.391 2.333s-2.391-1.047-2.391-2.333c0-1.287 1.073-2.333 2.39-2.333 1.32 0 2.392 1.046 2.392 2.333zm-1.53 0a.851.851 0 00-.861-.84.851.851 0 00-.86.84c0 .463.386.84.86.84s.86-.377.86-.84z"/><path fill="#323232" fill-opacity=".9" d="M48.214 14.104c.985 0 1.786.782 1.786 1.742v26.782c0 .961-.801 1.743-1.786 1.743h-36.48a.756.756 0 01-.765-.747c0-.412.343-.747.766-.747h36.48c.14 0 .254-.111.254-.249V40.73h-.674a.756.756 0 01-.765-.747c0-.412.343-.746.765-.746h.674V38.14h-.408a.756.756 0 01-.765-.746c0-.413.342-.747.765-.747h.408V15.846a.252.252 0 00-.255-.249H23.348a7.949 7.949 0 01-.76 2.06c-.085.162-.176.32-.27.474 1.051.683 1.745 1.85 1.745 3.17v6.964c0 2.1-1.75 3.807-3.902 3.807h-1.49c-2.152 0-3.902-1.708-3.902-3.807v-6.963c0-1.322.694-2.488 1.745-3.171a8.792 8.792 0 01-.27-.475 7.96 7.96 0 01-.76-2.059H1.786a.252.252 0 00-.255.25v.888h1.275c.423 0 .765.335.765.747a.756.756 0 01-.765.747H1.531v.796h.408c.423 0 .765.335.765.747a.756.756 0 01-.765.747H1.53v22.11c0 .137.114.248.255.248h6.48c.422 0 .765.335.765.747a.756.756 0 01-.766.747h-6.48C.802 44.37 0 43.589 0 42.628V15.846c0-.96.801-1.742 1.786-1.742h13.65c.142-.697.534-1.01.803-1.145.197-.1.414-.149.644-.149.915 0 1.833.8 2.533 1.734.7-.933 1.619-1.734 2.534-1.734.23 0 .446.05.643.148.27.135.661.449.803 1.146zm-31.261.212c-.106.299-.064 1.296.653 2.659.108.205.223.4.343.586.235-.043.476-.066.722-.066h1.49c.247 0 .488.023.723.066.12-.186.235-.381.343-.586.717-1.363.759-2.36.653-2.66-.301.09-1.081.68-1.787 1.983a.768.768 0 01-.677.397.768.768 0 01-.676-.397c-.706-1.302-1.486-1.893-1.787-1.982zm3.208 16.263c1.2 0 2.192-.873 2.35-2.001a6.43 6.43 0 01-3.095.791 6.428 6.428 0 01-3.094-.79c.157 1.127 1.15 2 2.35 2zm2.372-3.258v-1.477a6.427 6.427 0 01-3.117.803 6.426 6.426 0 01-3.116-.803v1.477a5.353 5.353 0 006.233 0zm0-2.721v-1.478a6.427 6.427 0 01-3.117.803 6.426 6.426 0 01-3.116-.803V24.6a5.353 5.353 0 006.233 0zm0-3.298c0-1.27-1.053-2.303-2.351-2.313v2.021a.756.756 0 01-.766.747.756.756 0 01-.765-.747v-2.021c-1.298.01-2.351 1.044-2.351 2.313v.576a5.352 5.352 0 006.233 0z"/><path fill="#323232" fill-opacity=".9" d="M9.772 17.49c2.152 0 3.902 1.708 3.902 3.807v6.963c0 2.1-1.75 3.808-3.902 3.808h-1.49c-2.152 0-3.902-1.708-3.902-3.808v-6.963c0-2.099 1.75-3.807 3.902-3.807zm-3.861 3.807v.246a23.88 23.88 0 013.133-2.56h-.762c-1.307 0-2.371 1.038-2.371 2.314zm0 3.498c1.613-1.733 3.836-3.344 6.066-4.349a2.352 2.352 0 00-1.324-1.296c-1.705.978-3.499 2.486-4.742 3.823zm6.233 3.465v-.16a14.433 14.433 0 00-3.018 2.474h.646c1.308 0 2.372-1.038 2.372-2.314zm0-3.326c-2.27 1.18-4.483 3.001-5.736 4.742.347.437.851.75 1.43.857.995-1.258 2.661-2.706 4.306-3.585zm0-3.464c-2.407 1.133-4.771 2.985-6.233 4.87v1.92c0 .123.01.244.029.362 1.481-1.846 3.82-3.667 6.204-4.807zm22.38 1.644c.127.222.2.477.2.749v1.891c0 .272-.073.527-.2.75v1.786c0 2.1-1.75 3.807-3.902 3.807h-1.49c-2.152 0-3.902-1.707-3.902-3.807v-1.787a1.504 1.504 0 01-.2-.749v-1.891c0-.272.073-.527.2-.749v-1.787c0-2.099 1.75-3.807 3.902-3.807h1.49c2.152 0 3.902 1.708 3.902 3.807zm-7.764-.794h.51v-.993c0-1.001.835-1.816 1.862-1.816h1.49c1.026 0 1.861.815 1.861 1.816v.993h.51v-.993c0-1.276-1.063-2.314-2.37-2.314h-1.491c-1.308 0-2.372 1.038-2.372 2.314zm3.627-.598v.598h.566v-.993a.327.327 0 00-.33-.322h-1.491a.327.327 0 00-.33.322v.993h.565v-.598c0-.275.228-.497.51-.497.282 0 .51.222.51.497zm2.606 5.576h-.51v.992c0 1.002-.835 1.816-1.86 1.816h-1.491c-1.026 0-1.861-.814-1.861-1.816v-.992h-.51v.992c0 1.276 1.063 2.314 2.37 2.314h1.491c1.308 0 2.371-1.038 2.371-2.314zm-3.626.597v-.597H28.8v.992c0 .178.149.323.33.323h1.491c.182 0 .33-.145.33-.323v-.992h-.565v.597a.504.504 0 01-.51.498.504.504 0 01-.51-.498zm3.826-4.032a.05.05 0 00-.05-.05h-6.531a.05.05 0 00-.051.05v1.891c0 .028.023.05.05.05h6.531a.05.05 0 00.051-.05zm12.221-.749c.127.222.2.477.2.749v1.891c0 .272-.073.527-.2.75v1.786c0 2.1-1.75 3.807-3.902 3.807h-1.49c-2.152 0-3.902-1.707-3.902-3.807v-1.787a1.504 1.504 0 01-.2-.749v-1.891c0-.272.073-.527.2-.749v-1.787c0-2.099 1.75-3.807 3.902-3.807h1.49c2.152 0 3.902 1.708 3.902 3.807zm-7.764-1.787v.993h6.233v-.993c0-1.276-1.063-2.314-2.37-2.314h-1.491c-1.308 0-2.372 1.038-2.372 2.314zm6.234 6.963v-.992H37.65v.992c0 1.276 1.064 2.314 2.372 2.314h1.49c1.308 0 2.371-1.038 2.371-2.314zm.2-4.427a.05.05 0 00-.052-.05h-6.53a.05.05 0 00-.051.05v1.891c0 .028.023.05.05.05h6.531a.05.05 0 00.051-.05zM6.551 2.14c-2.487 0-4.511 1.974-4.511 4.402 0 2.427 2.024 4.401 4.511 4.401a.756.756 0 00.765-.747.756.756 0 00-.765-.746c-1.643 0-2.98-1.305-2.98-2.908 0-1.604 1.337-2.909 2.98-2.909s2.98 1.305 2.98 2.909c0 .81-.352 1.592-.967 2.142a.734.734 0 00-.047 1.056.779.779 0 001.081.045 4.365 4.365 0 001.464-3.243c0-2.427-2.023-4.402-4.51-4.402z"/></svg>