<svg xmlns="http://www.w3.org/2000/svg" width="50" height="45"><path fill="#ff5d29" d="M46 15h3v29h-3z"/><path fill="#ff5d29" d="M1 44v-3h48v3z"/><path fill="#fff" d="M6.557 12.382c3.195 0 5.786-2.54 5.786-5.671 0-3.132-2.59-5.671-5.786-5.671C3.36 1.04.77 3.579.77 6.71c0 3.133 2.59 5.672 5.787 5.672z"/><path fill="#d45f45" d="M6.556 10.382c-2.066 0-3.746-1.647-3.746-3.671S4.49 3.04 6.556 3.04c2.065 0 3.746 1.647 3.746 3.671s-1.68 3.67-3.746 3.67z"/><path d="M4.902 6.711c0-1.669 1.142-3.08 2.7-3.524a3.804 3.804 0 00-1.046-.147C4.49 3.04 2.81 4.687 2.81 6.711s1.68 3.67 3.746 3.67c.363 0 .713-.051 1.046-.146-1.558-.445-2.7-1.856-2.7-3.524z" opacity=".1"/><path fill="#fff" d="M11.751 39.46c0 .8-.662 1.449-1.478 1.449H6.628c-.816 0-1.478-.649-1.478-1.448v-3.573c0-.8.662-1.448 1.478-1.448h3.645c.816 0 1.478.648 1.478 1.448v3.573z"/><path fill="#ff8150" d="M8.446 39.266c.897 0 1.625-.713 1.625-1.593s-.728-1.593-1.625-1.593c-.898 0-1.626.713-1.626 1.593s.728 1.593 1.626 1.593z"/><path fill="#fff" d="M20.021 39.46c0 .8-.662 1.449-1.478 1.449h-3.645c-.816 0-1.478-.649-1.478-1.448v-3.573c0-.8.662-1.448 1.478-1.448h3.645c.816 0 1.478.648 1.478 1.448z"/><path fill="#ff8150" d="M16.726 39.266c.897 0 1.625-.713 1.625-1.593s-.728-1.593-1.625-1.593c-.898 0-1.626.713-1.626 1.593s.728 1.593 1.626 1.593z"/><path fill="#fff" d="M28.3 39.46c0 .8-.66 1.449-1.477 1.449h-3.645c-.816 0-1.478-.649-1.478-1.448v-3.573c0-.8.662-1.448 1.478-1.448h3.645c.816 0 1.478.648 1.478 1.448z"/><path fill="#ff8150" d="M24.996 39.266c.898 0 1.625-.713 1.625-1.593s-.727-1.593-1.625-1.593-1.626.713-1.626 1.593.728 1.593 1.626 1.593z"/><path fill="#fff" d="M36.581 39.46c0 .8-.662 1.449-1.478 1.449h-3.645c-.816 0-1.478-.649-1.478-1.448v-3.573c0-.8.662-1.448 1.478-1.448h3.645c.816 0 1.478.648 1.478 1.448v3.573z"/><path fill="#ff8150" d="M33.276 39.266c.897 0 1.625-.713 1.625-1.593s-.728-1.593-1.625-1.593c-.898 0-1.626.713-1.626 1.593s.728 1.593 1.626 1.593z"/><path fill="#fff" d="M44.85 39.46c0 .8-.66 1.449-1.477 1.449h-3.645c-.816 0-1.478-.649-1.478-1.448v-3.573c0-.8.662-1.448 1.478-1.448h3.645c.816 0 1.478.648 1.478 1.448z"/><path fill="#ff8150" d="M41.556 39.266c.897 0 1.625-.713 1.625-1.593s-.728-1.593-1.625-1.593c-.898 0-1.626.713-1.626 1.593s.728 1.593 1.626 1.593z"/><path fill="#d45f45" d="M12.914 28.528c0 1.697-1.405 3.074-3.137 3.074h-1.49c-1.733 0-3.137-1.377-3.137-3.074v-6.994c0-1.698 1.404-3.074 3.137-3.074h1.49c1.732 0 3.137 1.376 3.137 3.074z"/><path fill="#fff" d="M5.15 22.567v1.546c1.33-1.707 4.01-4.061 6.32-5.164a3.156 3.156 0 00-1.274-.459c-1.825 1.044-3.717 2.64-5.046 4.077zm0 3.373v1.798c1.391-2.454 4.617-5.09 7.76-6.368a3.008 3.008 0 00-.225-.99C9.85 21.495 6.92 23.686 5.15 25.94zm.22 3.73c.143.35.35.669.607.942 1.232-2.126 4.116-4.52 6.933-5.798V23.72c-2.972 1.235-6.012 3.645-7.54 5.95zm7.54-2.83c-2.165.917-4.563 3.065-5.54 4.629.289.086.595.133.913.133h.222c.926-1.257 2.724-2.832 4.405-3.66z"/><path d="M7.245 28.528v-6.994c0-1.597 1.244-2.91 2.834-3.06-.1-.009-.2-.014-.302-.014h-1.49c-1.733 0-3.137 1.376-3.137 3.074v6.994c0 1.697 1.404 3.074 3.137 3.074h1.49c.102 0 .203-.005.303-.015-1.59-.149-2.835-1.462-2.835-3.06z" opacity=".1"/><path fill="#ff9150" d="M18.354 19.446h2.131c.495-.442 1.005-1.108 1.426-1.91.887-1.696 1.038-3.357.336-3.71-.689-.346-1.942.696-2.828 2.336-.885-1.64-2.138-2.682-2.827-2.336-.702.353-.552 2.014.336 3.71.42.802.93 1.468 1.426 1.91z"/><g opacity=".1"><path d="M18.63 17.535c-.684-1.307-.93-2.592-.685-3.275-.515-.43-1.006-.608-1.353-.434-.702.353-.552 2.014.336 3.709.42.803.93 1.47 1.426 1.91h1.702c-.496-.44-1.006-1.107-1.426-1.91z" opacity=".01"/></g><path fill="#d45f45" d="M23.294 28.528c0 1.697-1.405 3.074-3.137 3.074h-1.49c-1.733 0-3.137-1.377-3.137-3.074v-6.994c0-1.698 1.404-3.074 3.137-3.074h1.49c1.732 0 3.137 1.376 3.137 3.074z"/><path fill="#fff" d="M19.412 24.167a6.378 6.378 0 003.882-1.308v-1.327l-.001-.032a.535.535 0 00-.179.116c-2.041 2-5.363 2-7.404 0a.536.536 0 00-.18-.116v1.359a6.376 6.376 0 003.882 1.308zm-3.702.189a.535.535 0 00-.18-.116v1.36a6.377 6.377 0 003.882 1.307 6.378 6.378 0 003.882-1.307v-1.36a.537.537 0 00-.18.116c-2.041 2-5.363 2-7.404 0zm0 2.73a.535.535 0 00-.18-.116v1.36a6.376 6.376 0 003.882 1.307 6.378 6.378 0 003.882-1.307v-1.36a.537.537 0 00-.18.116c-2.041 2-5.363 2-7.404 0z"/><path d="M17.649 28.528v-6.994c0-1.594 1.237-2.904 2.822-3.059a3.217 3.217 0 00-.314-.015h-1.49c-1.733 0-3.137 1.376-3.137 3.074v6.994c0 1.697 1.404 3.074 3.137 3.074h1.49c.106 0 .21-.005.314-.016-1.585-.154-2.822-1.464-2.822-3.058z" opacity=".1"/><path fill="#eb694c" d="M33.754 28.558c0 1.698-1.405 3.074-3.137 3.074h-1.49c-1.733 0-3.137-1.377-3.137-3.074v-6.994c0-1.698 1.404-3.074 3.137-3.074h1.49c1.732 0 3.137 1.376 3.137 3.074z"/><path fill="#fff" d="M33.953 26.01c0 .442-.365.8-.816.8h-6.53a.808.808 0 01-.817-.8v-1.9c0-.442.366-.8.816-.8h6.53c.452 0 .817.358.817.8z"/><path d="M27.853 26.01v-1.9c0-.442.366-.8.817-.8h-2.064a.808.808 0 00-.816.8v1.9c0 .442.366.8.816.8h2.064a.808.808 0 01-.817-.8z" opacity=".1"/><path fill="#eb694c" d="M44.654 28.558c0 1.698-1.405 3.074-3.137 3.074h-1.49c-1.733 0-3.137-1.377-3.137-3.074v-6.994c0-1.698 1.404-3.074 3.137-3.074h1.49c1.732 0 3.137 1.376 3.137 3.074z"/><path d="M38.98 28.558v-6.994c0-1.598 1.246-2.911 2.837-3.06a3.312 3.312 0 00-.3-.014h-1.49c-1.733 0-3.137 1.376-3.137 3.074v6.994c0 1.697 1.404 3.074 3.137 3.074h1.49c.101 0 .202-.005.3-.015-1.591-.148-2.836-1.46-2.836-3.06z" opacity=".1"/><path fill="#fff" d="M44.853 26.01c0 .442-.365.8-.816.8h-6.53a.808.808 0 01-.817-.8v-1.9c0-.442.366-.8.816-.8h6.53c.452 0 .817.358.817.8z"/><path d="M38.777 26.01v-1.9c0-.442.365-.8.816-.8h-2.087a.808.808 0 00-.816.8v1.9c0 .442.366.8.816.8h2.087a.808.808 0 01-.816-.8z" opacity=".1"/><path d="M4.38 39.46v-3.572c0-1.212 1.006-2.198 2.243-2.198h3.645c1.237 0 2.244.986 2.244 2.198v3.573c0 1.212-1.007 2.198-2.244 2.198H6.623c-1.237 0-2.243-.986-2.243-2.198zm1.53-3.572v3.573c0 .385.32.698.713.698h3.645a.706.706 0 00.713-.698v-3.573a.706.706 0 00-.713-.698H6.623a.706.706 0 00-.712.698zm6.75 0c0-1.212 1.006-2.198 2.243-2.198h3.645c1.237 0 2.244.986 2.244 2.198v3.573c0 1.212-1.007 2.198-2.244 2.198h-3.645c-1.237 0-2.243-.986-2.243-2.198zm1.53 3.573c0 .385.32.698.713.698h3.645a.706.706 0 00.713-.698v-3.573a.706.706 0 00-.713-.698h-3.645a.706.706 0 00-.712.698zm6.74-3.573c0-1.212 1.006-2.198 2.243-2.198h3.645c1.237 0 2.244.986 2.244 2.198v3.573c0 1.212-1.007 2.198-2.244 2.198h-3.645c-1.237 0-2.243-.986-2.243-2.198zm6.601 0a.706.706 0 00-.712-.698h-3.646a.706.706 0 00-.712.698v3.573c0 .385.32.698.712.698h3.646a.706.706 0 00.712-.698zm7.567-2.198c1.237 0 2.244.986 2.244 2.198v3.573c0 1.212-1.007 2.198-2.244 2.198h-3.645c-1.237 0-2.243-.986-2.243-2.198v-3.573c0-1.212 1.006-2.198 2.243-2.198zm.713 2.198a.706.706 0 00-.713-.698h-3.645a.706.706 0 00-.712.698v3.573c0 .385.32.698.712.698h3.645a.706.706 0 00.713-.698zm7.567-2.198c1.237 0 2.244.986 2.244 2.198v3.573c0 1.212-1.007 2.198-2.244 2.198h-3.645c-1.237 0-2.243-.986-2.243-2.198v-3.573c0-1.212 1.006-2.198 2.243-2.198zm.713 2.198a.706.706 0 00-.712-.698h-3.646a.706.706 0 00-.712.698v3.573c0 .385.32.698.712.698h3.646a.706.706 0 00.712-.698z"/><path d="M6.06 37.673c0-1.292 1.073-2.343 2.391-2.343s2.39 1.051 2.39 2.343-1.072 2.343-2.39 2.343-2.391-1.05-2.391-2.343zm1.53 0c0 .465.387.843.861.843s.86-.378.86-.843a.853.853 0 00-.86-.843.853.853 0 00-.86.843zm6.74 0c0-1.292 1.073-2.343 2.39-2.343 1.32 0 2.392 1.051 2.392 2.343s-1.073 2.343-2.391 2.343-2.39-1.05-2.391-2.343zm1.53 0c0 .465.387.843.86.843a.853.853 0 00.861-.843.853.853 0 00-.86-.843.853.853 0 00-.86.843zm6.75 0c0-1.292 1.073-2.343 2.391-2.343s2.391 1.051 2.391 2.343-1.073 2.343-2.391 2.343-2.391-1.05-2.391-2.343zm1.53 0c0 .465.387.843.861.843.475 0 .86-.378.86-.843a.853.853 0 00-.86-.843.853.853 0 00-.86.843zm11.522 0c0 1.292-1.073 2.343-2.391 2.343s-2.391-1.05-2.391-2.343c0-1.292 1.073-2.343 2.391-2.343s2.39 1.051 2.39 2.343zm-1.53 0a.853.853 0 00-.861-.843.853.853 0 00-.86.843c0 .465.386.843.86.843s.86-.378.86-.843zm9.81 0c0 1.292-1.073 2.343-2.391 2.343s-2.391-1.05-2.391-2.343c0-1.292 1.073-2.343 2.39-2.343 1.32 0 2.392 1.051 2.392 2.343zm-1.53 0a.853.853 0 00-.861-.843.853.853 0 00-.86.843c0 .465.386.843.86.843s.86-.378.86-.843zM9.772 17.71c2.152 0 3.902 1.716 3.902 3.824v6.994c0 2.108-1.75 3.824-3.902 3.824h-1.49c-2.152 0-3.902-1.716-3.902-3.824v-6.994c0-2.109 1.75-3.824 3.902-3.824zm2.372 3.824c0-1.281-1.064-2.324-2.372-2.324h-1.49c-1.307 0-2.371 1.043-2.371 2.324v6.994c0 1.281 1.064 2.324 2.371 2.324h1.49c1.308 0 2.372-1.043 2.372-2.324zm18.478-3.794c2.152 0 3.902 1.715 3.902 3.824v1.795c.127.223.2.479.2.752v1.9c0 .273-.073.529-.2.752v1.795c0 2.108-1.75 3.824-3.902 3.824h-1.49c-2.152 0-3.902-1.716-3.902-3.824v-1.795c-.127-.223-.2-.48-.2-.752v-1.9c0-.273.073-.53.2-.752v-1.795c0-2.109 1.75-3.824 3.902-3.824zm-3.862 4.82h.51v-.996c0-1.006.835-1.824 1.862-1.824h1.49c1.026 0 1.861.818 1.861 1.824v.997h.51v-.997c0-1.281-1.063-2.324-2.37-2.324h-1.491c-1.308 0-2.372 1.043-2.372 2.324zm3.627-.6v.6h.566v-.996a.328.328 0 00-.33-.324h-1.491a.328.328 0 00-.33.324v.997h.565v-.6c0-.276.228-.5.51-.5.282 0 .51.224.51.5zm2.606 5.6h-.51v.998c0 1.005-.835 1.824-1.86 1.824h-1.491c-1.026 0-1.861-.818-1.861-1.824v-.997h-.51v.997c0 1.281 1.063 2.324 2.37 2.324h1.491c1.308 0 2.371-1.043 2.371-2.324zm-3.626.6v-.6H28.8v.998c0 .178.149.324.33.324h1.491c.182 0 .33-.146.33-.324v-.997h-.565v.6c0 .276-.228.5-.51.5a.505.505 0 01-.51-.5zm3.826-4.05a.05.05 0 00-.05-.05h-6.531a.05.05 0 00-.051.05v1.9c0 .028.023.05.05.05h6.531a.05.05 0 00.051-.05zm8.319-6.37c2.152 0 3.902 1.715 3.902 3.824v1.795c.127.223.2.479.2.752v1.9c0 .273-.073.529-.2.752v1.795c0 2.108-1.75 3.824-3.902 3.824h-1.49c-2.152 0-3.902-1.716-3.902-3.824v-1.795c-.127-.223-.2-.48-.2-.752v-1.9c0-.273.073-.53.2-.752v-1.795c0-2.109 1.75-3.824 3.902-3.824zm-3.862 4.82h6.233v-.996c0-1.281-1.063-2.324-2.37-2.324h-1.491c-1.308 0-2.372 1.043-2.372 2.324zm6.234 5H37.65v.998c0 1.281 1.064 2.324 2.372 2.324h1.49c1.308 0 2.371-1.043 2.371-2.324zm.2-3.45a.05.05 0 00-.052-.05h-6.53a.05.05 0 00-.051.05v1.9c0 .028.023.05.05.05h6.531a.05.05 0 00.051-.05zM0 6.711C0 3.171 2.94.29 6.552.29c3.613 0 6.552 2.88 6.552 6.421 0 3.54-2.94 6.42-6.552 6.42-3.613 0-6.552-2.88-6.552-6.42zM6.552 1.79c-2.769 0-5.021 2.208-5.021 4.921s2.252 4.92 5.021 4.92 5.021-2.207 5.021-4.92S9.321 1.79 6.552 1.79z"/><path d="M48.214 14.31c.985 0 1.786.785 1.786 1.75v26.9c0 .965-.801 1.75-1.786 1.75h-36.48a.758.758 0 01-.765-.75c0-.414.343-.75.766-.75h36.48c.14 0 .254-.112.254-.25v-1.907h-.674a.758.758 0 01-.765-.75c0-.414.343-.75.765-.75h.674v-1.1h-.408a.758.758 0 01-.765-.75c0-.414.342-.75.765-.75h.408V16.06a.253.253 0 00-.255-.25H23.348a8.007 8.007 0 01-.76 2.067 8.95 8.95 0 01-.27.477 3.804 3.804 0 011.745 3.185v6.994c0 2.109-1.75 3.824-3.902 3.824h-1.49c-2.152 0-3.902-1.715-3.902-3.824v-6.994c0-1.327.694-2.499 1.745-3.185a8.848 8.848 0 01-.27-.477 8.018 8.018 0 01-.76-2.067H1.786a.253.253 0 00-.255.25v.893h1.275c.423 0 .765.336.765.75s-.342.75-.765.75H1.531v.8h.408c.423 0 .765.336.765.75s-.342.75-.765.75H1.53V42.96c0 .138.114.25.255.25h6.48c.422 0 .765.336.765.75s-.343.75-.766.75h-6.48C.802 44.71 0 43.925 0 42.96v-26.9c0-.965.801-1.75 1.786-1.75h13.65c.142-.7.534-1.015.803-1.15.197-.1.414-.15.644-.15.915 0 1.833.804 2.533 1.742.7-.938 1.619-1.742 2.534-1.742.23 0 .446.05.643.15.27.135.661.45.803 1.15h24.818zm-31.261.212c-.106.3-.064 1.302.653 2.67.108.207.223.404.343.59.235-.043.476-.067.722-.067h1.49c.247 0 .488.024.723.067a7.42 7.42 0 00.343-.59c.717-1.368.759-2.37.653-2.67-.301.09-1.081.683-1.787 1.991a.768.768 0 01-.677.4.768.768 0 01-.676-.4c-.706-1.308-1.486-1.901-1.787-1.99zm5.58 7.017c0-1.275-1.053-2.313-2.351-2.323v2.03c0 .414-.343.75-.766.75a.758.758 0 01-.765-.75v-2.03c-1.298.01-2.351 1.048-2.351 2.323v6.994c0 1.281 1.064 2.324 2.371 2.324h1.49c1.308 0 2.372-1.043 2.372-2.324zM6.551 11.132a.758.758 0 00.766-.75.758.758 0 00-.766-.75c-1.643 0-2.98-1.31-2.98-2.921 0-1.61 1.337-2.921 2.98-2.921 1.644 0 2.98 1.31 2.98 2.921a2.9 2.9 0 01-.967 2.152.74.74 0 00-.047 1.06.777.777 0 001.081.046 4.393 4.393 0 001.464-3.258c0-2.438-2.023-4.421-4.51-4.421-2.488 0-4.512 1.983-4.512 4.421s2.024 4.42 4.511 4.42z"/><path fill="#fff" d="M5.71 5.545c.796.323 1.063.586 1.393 1.366.33-.78.597-1.043 1.393-1.366C7.7 5.222 7.433 4.96 7.103 4.18c-.33.78-.597 1.042-1.393 1.365zm2.754 2.259c.34 0 .615-.27.615-.602a.608.608 0 00-.615-.602.608.608 0 00-.614.602c0 .332.275.602.614.602z"/><path fill="#8c6239" d="M43.267 3.57h-27.1a.77.77 0 00-.777.762c0 .42.348.761.777.761h27.1z"/><path fill="#42210b" d="M49.218 5.093h-6.89a.77.77 0 01-.778-.761.77.77 0 01.777-.762h6.891a.77.77 0 01.778.762.77.77 0 01-.778.761z"/><path fill="#8c6239" d="M43.267 7.36h-27.1a.77.77 0 00-.777.762c0 .42.348.761.777.761h27.1z"/><path fill="#42210b" d="M49.218 8.883h-6.89a.77.77 0 01-.778-.761.77.77 0 01.777-.762h6.891a.77.77 0 01.778.762.77.77 0 01-.778.761z"/></svg>