<svg xmlns="http://www.w3.org/2000/svg" width="50" height="32"><path fill="#474747" d="M49.218 8.986a2.338 2.338 0 01-1.908 2.29c.224.768.345 1.563.345 2.377a8.508 8.508 0 01-3.763 7.066c2.34 2.466 3.763 4.764 3.763 6.157 0 2.574-2.102 4.667-4.688 4.667-1.738 0-3.459-.258-5.114-.744a8.53 8.53 0 01-3.48.744H10.937c-4.738 0-8.594-3.839-8.594-8.556 0-.814.122-1.609.346-2.377A2.338 2.338 0 01.78 18.32c0-.194.08-2.797 3.69-5.082C8.74 7.874 18.802.43 28.123.43c20.854 0 21.093 8.207 21.093 8.556zM8.17 11.535c3.093-1.036 7.473-1.771 13.703-1.771 1.082 0 2.17.103 3.258.285a61.549 61.549 0 0120.18-3.396.77.77 0 00.676-.413c-1.909-1.765-6.003-3.797-14.771-4.186 1.043 1.203 1.594 2.498 1.594 3.82h-1.56c0-1.644-1.245-3-2.342-3.879-.262-.003-.514-.01-.783-.01-1.834 0-3.714.337-5.578.891 1.56 1.176 3.234 2.982 3.234 5.332h-1.563c0-2.144-2.066-3.806-3.514-4.709a33.447 33.447 0 00-4.607 2.176c.795.676 1.423 1.39 1.866 2.137l-1.346.792c-.426-.72-1.09-1.415-1.955-2.077-2.475 1.544-4.707 3.305-6.49 5.008zm24.832 2.947a30.81 30.81 0 00-4.642-2.02c-1.433.791-4.144 2.613-4.144 5.08h-1.562c0-2.574 2.006-4.497 3.69-5.66-1.488-.359-2.988-.562-4.471-.562-.835 0-1.621.017-2.386.043-1.093.884-2.302 2.222-2.302 3.846h-1.562c0-1.29.525-2.552 1.516-3.727-7.648.556-11.344 2.44-13.13 4.092a.77.77 0 00.676.413 61.74 61.74 0 0130.971 8.335l.53.308a16.628 16.628 0 008.343 2.246c.527 0 1.04-.142 1.504-.403-.379-1.571-2.762-4.522-6.234-7.41-1.008 1.022-1.52 2.078-1.52 3.146h-1.563c0-1.45.63-2.832 1.861-4.122a40.894 40.894 0 00-4.065-2.76c-1.366.896-3.264 2.506-3.264 4.549h-1.563c0-2.406 1.77-4.245 3.317-5.394zm1.37 15.505c.36 0 .713-.035 1.063-.088a18.34 18.34 0 01-1.598-.814l-.53-.308a60.168 60.168 0 00-29.002-8.104 6.904 6.904 0 00-.401 2.314c0 3.86 3.154 7 7.031 7zm11.384-1.735a4.62 4.62 0 01-1.227.18c-3.205 0-6.362-.85-9.13-2.458l-.53-.308a60.17 60.17 0 00-30.184-8.124 2.325 2.325 0 01-1.715-.763c-.577.881-.628 1.52-.628 1.54 0 .43.35.779.78.779a61.74 61.74 0 0130.972 8.336l.53.308a16.628 16.628 0 008.343 2.245 3.12 3.12 0 002.789-1.735zm-2.99-8.667c2.058-1.274 3.325-3.491 3.325-5.932 0-.798-.139-1.573-.4-2.313a60.164 60.164 0 00-12.36 1.527c3.633 1.856 6.925 4.313 9.435 6.718zm4.888-10.599c0-.02-.052-.66-.629-1.54a2.325 2.325 0 01-1.715.762c-5.862 0-11.649.853-17.243 2.528 1.019.304 2.03.667 3.02 1.085a61.72 61.72 0 0115.786-2.057.78.78 0 00.781-.778z"/><path fill="#474747" d="M7.032 22.988c0-.219.018-.437.054-.65l-1.541-.258c-.05.298-.075.603-.075.908 0 3.001 2.454 5.444 5.469 5.444H12.5v-1.555h-1.56c-2.154 0-3.907-1.745-3.907-3.89zm7.028 3.892h1.563v1.556H14.06zm3.13 0h1.563v1.556H17.19zm20.533-13.453l1.105-1.1.78.778-1.104 1.1zm3.124 2.012l.781-.778 1.105 1.1-.781.778zm1.563-2.011l1.104-1.1.781.778-1.104 1.1z"/></svg>