<svg xmlns="http://www.w3.org/2000/svg" width="51" height="32"><path fill="#e6e9ed" d="M39.615 11.063c2.055-.265 4.135-.437 7.538-.523.422.96.661 2.008.661 3.117 0 3.024-1.753 5.64-4.31 6.946a37.041 37.041 0 00-2.941-2.555 41.961 41.961 0 00-5.387-3.617 35.456 35.456 0 00-3.586-1.782 64.708 64.708 0 018.025-1.586z"/><path fill="#ea4a31" d="M47.152 10.542c-3.403.086-5.483.257-7.539.523-2.709.36-5.394.89-8.024 1.586a29.983 29.983 0 00-2.757-1.023 25.12 25.12 0 00-3.132-.782A62.908 62.908 0 0146.22 7.41c.852 0 1.53-.649 1.585-1.469 1.283 1.281 1.602 2.46 1.602 3.031 0 .43-.175.82-.47 1.102-.287.289-.685.46-1.124.46-.223 0-.438 0-.661.009z"/><path fill="#eb694c" d="M21.185 2.582c2.478-.883 5.02-1.422 7.498-1.422 11.659 0 16.87 2.531 19.117 4.773v.008a1.576 1.576 0 01-1.585 1.469 62.907 62.907 0 00-20.52 3.438h-.008a19.15 19.15 0 00-3.379-.313c-.948 0-1.856.016-2.725.047-7.49.281-11.921 1.695-14.503 3.273 2.072-2.601 5.666-5.78 9.905-8.312 1.96-1.164 4.056-2.196 6.2-2.961z"/><path fill="#e6e9ed" d="M3.851 19.91c6.128.172 10.878.875 15.492 2.094a62.797 62.797 0 0115.037 6.164l.542.312a18.38 18.38 0 003.633 1.57 8.014 8.014 0 01-3.49.79H11.159c-4.399 0-7.969-3.5-7.969-7.813 0-1.11.24-2.156.661-3.117z"/><path fill="#ea4a31" d="M3.845 19.912c-.223-.008-.438-.008-.661-.008-.439 0-.837-.172-1.124-.461a1.513 1.513 0 01-.47-1.102c0-.57.319-1.75 1.602-3.031.055.82.733 1.469 1.585 1.469a62.857 62.857 0 0131.19 8.265l.542.313a17.935 17.935 0 008.91 2.36c.9 0 1.72-.305 2.39-.798v.016c0 2.156-1.785 3.906-3.985 3.906-1.8 0-3.578-.265-5.275-.789a18.387 18.387 0 01-3.634-1.57l-.542-.313a62.797 62.797 0 00-15.037-6.164c-4.614-1.218-9.363-1.922-15.49-2.093z"/><path fill="#eb694c" d="M19.592 10.577a75.899 75.899 0 012.725-.047c1.116 0 2.247.11 3.379.313h.008c1.044.187 2.095.453 3.131.78.933.29 1.85.641 2.758 1.024a35.464 35.464 0 013.586 1.781 41.965 41.965 0 015.386 3.618 37.038 37.038 0 012.94 2.554c2.654 2.555 4.296 4.953 4.312 6.32a4.02 4.02 0 01-2.39.797c-3.132 0-6.208-.812-8.91-2.359l-.542-.312a62.857 62.857 0 00-31.19-8.266c-.852 0-1.53-.648-1.585-1.469v-.008a9.9 9.9 0 011.889-1.453c2.581-1.578 7.012-2.992 14.503-3.273z"/><path d="M48.261 11.274c.228.772.351 1.57.351 2.387 0 2.878-1.45 5.508-3.837 7.098 2.386 2.476 3.837 4.784 3.837 6.183 0 2.586-2.144 4.688-4.78 4.688-1.774 0-3.53-.26-5.218-.747a8.815 8.815 0 01-3.548.747H11.159c-4.833 0-8.765-3.856-8.765-8.594 0-.818.123-1.615.352-2.387C1.64 20.443.8 19.492.8 18.349c0-.195.082-2.81 3.763-5.104C8.919 7.857 19.183.38 28.69.38c21.27 0 21.515 8.243 21.515 8.594 0 1.143-.84 2.094-1.945 2.3zM14.96 6.504c-2.525 1.551-4.801 3.32-6.62 5.03 3.155-1.04 7.622-1.779 13.977-1.779 1.103 0 2.214.104 3.323.286A63.661 63.661 0 0146.222 6.63a.787.787 0 00.69-.414c-1.947-1.774-6.123-3.814-15.066-4.205 1.063 1.208 1.626 2.51 1.626 3.838h-1.594c0-1.653-1.27-3.014-2.388-3.897-.268-.003-.525-.01-.8-.01-1.87 0-3.788.338-5.69.895 1.593 1.18 3.3 2.995 3.3 5.355h-1.594c0-2.153-2.108-3.823-3.584-4.73-1.61.6-3.188 1.344-4.7 2.186.811.679 1.452 1.397 1.904 2.147l-1.373.795c-.435-.723-1.113-1.42-1.994-2.087zm18.709 7.99a31.677 31.677 0 00-4.735-2.028c-1.462.794-4.227 2.623-4.227 5.102h-1.593c0-2.586 2.046-4.518 3.763-5.685-1.517-.36-3.047-.566-4.56-.566-.851 0-1.654.018-2.434.044-1.115.888-2.348 2.231-2.348 3.863h-1.593c0-1.295.536-2.563 1.546-3.743-7.801.558-11.571 2.451-13.393 4.11a.787.787 0 00.69.414c11.089 0 22.013 2.895 31.59 8.373l.541.309a17.163 17.163 0 008.51 2.255c.538 0 1.06-.142 1.534-.404-.387-1.578-2.817-4.542-6.36-7.442-1.027 1.025-1.549 2.086-1.549 3.159h-1.594c0-1.456.642-2.844 1.898-4.14a41.759 41.759 0 00-4.146-2.772c-1.393.9-3.33 2.517-3.33 4.568h-1.594c0-2.416 1.806-4.263 3.384-5.417zm1.398 15.573c.367 0 .726-.035 1.083-.088a18.8 18.8 0 01-1.63-.818l-.54-.31c-8.987-5.138-19.191-7.937-29.583-8.139a6.85 6.85 0 00-.408 2.324c0 3.878 3.216 7.031 7.171 7.031zm8.765 0c1.25 0 2.322-.714 2.845-1.743-.406.11-.824.181-1.251.181-3.27 0-6.49-.854-9.312-2.469l-.54-.31c-9.335-5.337-19.981-8.158-30.789-8.158a2.388 2.388 0 01-1.749-.767c-.589.885-.641 1.527-.641 1.548a.79.79 0 00.797.781c11.088 0 22.013 2.895 31.59 8.373l.54.309a17.163 17.163 0 008.51 2.255zm3.188-16.406a6.85 6.85 0 00-.409-2.323 62.278 62.278 0 00-12.607 1.534c3.706 1.863 7.064 4.331 9.624 6.747 2.1-1.28 3.392-3.506 3.392-5.958zm1.593-4.687c0-.021-.052-.663-.641-1.548a2.388 2.388 0 01-1.75.767c-5.979 0-11.881.856-17.587 2.539 1.04.305 2.07.67 3.08 1.09a63.876 63.876 0 0116.102-2.067.79.79 0 00.796-.781z"/><path d="M7.174 23.032c0-.22.018-.44.055-.653l-1.573-.259c-.05.3-.076.605-.076.912 0 3.015 2.503 5.468 5.578 5.468h1.594v-1.562h-1.594c-2.197 0-3.984-1.752-3.984-3.906zm7.166 3.908h1.594v1.563H14.34zm3.19 0h1.594v1.563H17.53zm20.947-13.51l1.127-1.106.797.782-1.127 1.104zm3.187 2.02l.797-.782 1.127 1.105-.797.78zm1.594-2.02l1.127-1.105.796.781-1.127 1.105z"/></svg>