<svg width="14" height="13" viewBox="0 0 14 13" fill="none" xmlns="http://www.w3.org/2000/svg">
<g clip-path="url(#clip0)">
<path d="M14 2.16699H0V10.8338H14V2.16699Z" fill="#F0F0F0"/>
<path d="M7.875 2.16699H6.125V5.68781H0V7.31281H6.125V10.8336H7.875V7.31281H14V5.68781H7.875V2.16699Z" fill="#D80027"/>
<path d="M10.7676 8.00684L14 9.67439V8.00684H10.7676Z" fill="#0052B4"/>
<path d="M8.52197 8.00684L14.0002 10.8329V10.0338L10.0711 8.00684H8.52197Z" fill="#0052B4"/>
<path d="M12.541 10.8333L8.52197 8.75977V10.8333H12.541Z" fill="#0052B4"/>
<path d="M8.52197 8.00684L14.0002 10.8329V10.0338L10.0711 8.00684H8.52197Z" fill="#F0F0F0"/>
<path d="M8.52197 8.00684L14.0002 10.8329V10.0338L10.0711 8.00684H8.52197Z" fill="#D80027"/>
<path d="M2.47026 8.00684L0 9.28119V8.00684H2.47026Z" fill="#0052B4"/>
<path d="M5.47802 8.36621V10.8329H0.696777L5.47802 8.36621Z" fill="#0052B4"/>
<path d="M3.92911 8.00684L0 10.0338V10.8329L5.47827 8.00684H3.92911Z" fill="#D80027"/>
<path d="M3.23244 4.99275L0 3.3252V4.99275H3.23244Z" fill="#0052B4"/>
<path d="M5.47827 4.99307L0 2.16699V2.96614L3.92911 4.99307H5.47827Z" fill="#0052B4"/>
<path d="M1.45898 2.16699L5.47802 4.24049V2.16699H1.45898Z" fill="#0052B4"/>
<path d="M5.47827 4.99307L0 2.16699V2.96614L3.92911 4.99307H5.47827Z" fill="#F0F0F0"/>
<path d="M5.47827 4.99307L0 2.16699V2.96614L3.92911 4.99307H5.47827Z" fill="#D80027"/>
<path d="M11.5298 4.99311L14 3.71875V4.99311H11.5298Z" fill="#0052B4"/>
<path d="M8.52197 4.63372V2.16699H13.3032L8.52197 4.63372Z" fill="#0052B4"/>
<path d="M10.0711 4.99307L14.0002 2.96614V2.16699L8.52197 4.99307H10.0711Z" fill="#D80027"/>
</g>
<defs>
<clipPath id="clip0">
<rect width="14" height="13" fill="white"/>
</clipPath>
</defs>
</svg>
